<?xml version="1.0" encoding="utf-8" standalone="no"?>
<!DOCTYPE svg PUBLIC "-//W3C//DTD SVG 1.1//EN"
  "http://www.w3.org/Graphics/SVG/1.1/DTD/svg11.dtd">
<svg xmlns:xlink="http://www.w3.org/1999/xlink" width="898.192656pt" height="877.570625pt" viewBox="0 0 898.192656 877.570625" xmlns="http://www.w3.org/2000/svg" version="1.1">
 <metadata>
  <rdf:RDF xmlns:dc="http://purl.org/dc/elements/1.1/" xmlns:cc="http://creativecommons.org/ns#" xmlns:rdf="http://www.w3.org/1999/02/22-rdf-syntax-ns#">
   <cc:Work>
    <dc:type rdf:resource="http://purl.org/dc/dcmitype/StillImage"/>
    <dc:date>2024-09-26T12:56:04.746278</dc:date>
    <dc:format>image/svg+xml</dc:format>
    <dc:creator>
     <cc:Agent>
      <dc:title>Matplotlib v3.9.1, https://matplotlib.org/</dc:title>
     </cc:Agent>
    </dc:creator>
   </cc:Work>
  </rdf:RDF>
 </metadata>
 <defs>
  <style type="text/css">*{stroke-linejoin: round; stroke-linecap: butt}</style>
 </defs>
 <g id="figure_1">
  <g id="patch_1">
   <path d="M 0 877.570625 
L 898.192656 877.570625 
L 898.192656 0 
L 0 0 
z
" style="fill: #ffffff"/>
  </g>
  <g id="axes_1">
   <g id="patch_2">
    <path d="M 141.600469 768.86875 
L 811.200469 768.86875 
L 811.200469 103.58875 
L 141.600469 103.58875 
z
" style="fill: #ffffff"/>
   </g>
   <g id="matplotlib.axis_1">
    <g id="xtick_1">
     <g id="line2d_1">
      <path d="M 274.713722 768.86875 
L 274.713722 103.58875 
" clip-path="url(#pff2e52d8cf)" style="fill: none; stroke: #b0b0b0; stroke-width: 0.8; stroke-linecap: square"/>
     </g>
     <g id="line2d_2">
      <defs>
       <path id="me91411985a" d="M 0 0 
L 0 3.5 
" style="stroke: #000000; stroke-width: 0.8"/>
      </defs>
      <g>
       <use xlink:href="#me91411985a" x="274.713722" y="768.86875" style="stroke: #000000; stroke-width: 0.8"/>
      </g>
     </g>
     <g id="text_1">
      <!-- 1 -->
      <g transform="translate(266.760597 794.864844) scale(0.25 -0.25)">
       <defs>
        <path id="DejaVuSans-31" d="M 794 531 
L 1825 531 
L 1825 4091 
L 703 3866 
L 703 4441 
L 1819 4666 
L 2450 4666 
L 2450 531 
L 3481 531 
L 3481 0 
L 794 0 
L 794 531 
z
" transform="scale(0.015625)"/>
       </defs>
       <use xlink:href="#DejaVuSans-31"/>
      </g>
     </g>
    </g>
    <g id="xtick_2">
     <g id="line2d_3">
      <path d="M 421.394992 768.86875 
L 421.394992 103.58875 
" clip-path="url(#pff2e52d8cf)" style="fill: none; stroke: #b0b0b0; stroke-width: 0.8; stroke-linecap: square"/>
     </g>
     <g id="line2d_4">
      <g>
       <use xlink:href="#me91411985a" x="421.394992" y="768.86875" style="stroke: #000000; stroke-width: 0.8"/>
      </g>
     </g>
     <g id="text_2">
      <!-- 2 -->
      <g transform="translate(413.441867 794.864844) scale(0.25 -0.25)">
       <defs>
        <path id="DejaVuSans-32" d="M 1228 531 
L 3431 531 
L 3431 0 
L 469 0 
L 469 531 
Q 828 903 1448 1529 
Q 2069 2156 2228 2338 
Q 2531 2678 2651 2914 
Q 2772 3150 2772 3378 
Q 2772 3750 2511 3984 
Q 2250 4219 1831 4219 
Q 1534 4219 1204 4116 
Q 875 4013 500 3803 
L 500 4441 
Q 881 4594 1212 4672 
Q 1544 4750 1819 4750 
Q 2544 4750 2975 4387 
Q 3406 4025 3406 3419 
Q 3406 3131 3298 2873 
Q 3191 2616 2906 2266 
Q 2828 2175 2409 1742 
Q 1991 1309 1228 531 
z
" transform="scale(0.015625)"/>
       </defs>
       <use xlink:href="#DejaVuSans-32"/>
      </g>
     </g>
    </g>
    <g id="xtick_3">
     <g id="line2d_5">
      <path d="M 568.076263 768.86875 
L 568.076263 103.58875 
" clip-path="url(#pff2e52d8cf)" style="fill: none; stroke: #b0b0b0; stroke-width: 0.8; stroke-linecap: square"/>
     </g>
     <g id="line2d_6">
      <g>
       <use xlink:href="#me91411985a" x="568.076263" y="768.86875" style="stroke: #000000; stroke-width: 0.8"/>
      </g>
     </g>
     <g id="text_3">
      <!-- 3 -->
      <g transform="translate(560.123138 794.864844) scale(0.25 -0.25)">
       <defs>
        <path id="DejaVuSans-33" d="M 2597 2516 
Q 3050 2419 3304 2112 
Q 3559 1806 3559 1356 
Q 3559 666 3084 287 
Q 2609 -91 1734 -91 
Q 1441 -91 1130 -33 
Q 819 25 488 141 
L 488 750 
Q 750 597 1062 519 
Q 1375 441 1716 441 
Q 2309 441 2620 675 
Q 2931 909 2931 1356 
Q 2931 1769 2642 2001 
Q 2353 2234 1838 2234 
L 1294 2234 
L 1294 2753 
L 1863 2753 
Q 2328 2753 2575 2939 
Q 2822 3125 2822 3475 
Q 2822 3834 2567 4026 
Q 2313 4219 1838 4219 
Q 1578 4219 1281 4162 
Q 984 4106 628 3988 
L 628 4550 
Q 988 4650 1302 4700 
Q 1616 4750 1894 4750 
Q 2613 4750 3031 4423 
Q 3450 4097 3450 3541 
Q 3450 3153 3228 2886 
Q 3006 2619 2597 2516 
z
" transform="scale(0.015625)"/>
       </defs>
       <use xlink:href="#DejaVuSans-33"/>
      </g>
     </g>
    </g>
    <g id="xtick_4">
     <g id="line2d_7">
      <path d="M 714.757533 768.86875 
L 714.757533 103.58875 
" clip-path="url(#pff2e52d8cf)" style="fill: none; stroke: #b0b0b0; stroke-width: 0.8; stroke-linecap: square"/>
     </g>
     <g id="line2d_8">
      <g>
       <use xlink:href="#me91411985a" x="714.757533" y="768.86875" style="stroke: #000000; stroke-width: 0.8"/>
      </g>
     </g>
     <g id="text_4">
      <!-- 4 -->
      <g transform="translate(706.804408 794.864844) scale(0.25 -0.25)">
       <defs>
        <path id="DejaVuSans-34" d="M 2419 4116 
L 825 1625 
L 2419 1625 
L 2419 4116 
z
M 2253 4666 
L 3047 4666 
L 3047 1625 
L 3713 1625 
L 3713 1100 
L 3047 1100 
L 3047 0 
L 2419 0 
L 2419 1100 
L 313 1100 
L 313 1709 
L 2253 4666 
z
" transform="scale(0.015625)"/>
       </defs>
       <use xlink:href="#DejaVuSans-34"/>
      </g>
     </g>
    </g>
    <g id="text_5">
     <!--  -->
     <g transform="translate(476.400469 826.859375) scale(0.3 -0.3)"/>
     <!--  Interatomic Distance ($\AA$)  -->
     <g transform="translate(283.200469 864.131563) scale(0.3 -0.3)">
      <defs>
       <path id="DejaVuSans-20" transform="scale(0.015625)"/>
       <path id="DejaVuSans-49" d="M 628 4666 
L 1259 4666 
L 1259 0 
L 628 0 
L 628 4666 
z
" transform="scale(0.015625)"/>
       <path id="DejaVuSans-6e" d="M 3513 2113 
L 3513 0 
L 2938 0 
L 2938 2094 
Q 2938 2591 2744 2837 
Q 2550 3084 2163 3084 
Q 1697 3084 1428 2787 
Q 1159 2491 1159 1978 
L 1159 0 
L 581 0 
L 581 3500 
L 1159 3500 
L 1159 2956 
Q 1366 3272 1645 3428 
Q 1925 3584 2291 3584 
Q 2894 3584 3203 3211 
Q 3513 2838 3513 2113 
z
" transform="scale(0.015625)"/>
       <path id="DejaVuSans-74" d="M 1172 4494 
L 1172 3500 
L 2356 3500 
L 2356 3053 
L 1172 3053 
L 1172 1153 
Q 1172 725 1289 603 
Q 1406 481 1766 481 
L 2356 481 
L 2356 0 
L 1766 0 
Q 1100 0 847 248 
Q 594 497 594 1153 
L 594 3053 
L 172 3053 
L 172 3500 
L 594 3500 
L 594 4494 
L 1172 4494 
z
" transform="scale(0.015625)"/>
       <path id="DejaVuSans-65" d="M 3597 1894 
L 3597 1613 
L 953 1613 
Q 991 1019 1311 708 
Q 1631 397 2203 397 
Q 2534 397 2845 478 
Q 3156 559 3463 722 
L 3463 178 
Q 3153 47 2828 -22 
Q 2503 -91 2169 -91 
Q 1331 -91 842 396 
Q 353 884 353 1716 
Q 353 2575 817 3079 
Q 1281 3584 2069 3584 
Q 2775 3584 3186 3129 
Q 3597 2675 3597 1894 
z
M 3022 2063 
Q 3016 2534 2758 2815 
Q 2500 3097 2075 3097 
Q 1594 3097 1305 2825 
Q 1016 2553 972 2059 
L 3022 2063 
z
" transform="scale(0.015625)"/>
       <path id="DejaVuSans-72" d="M 2631 2963 
Q 2534 3019 2420 3045 
Q 2306 3072 2169 3072 
Q 1681 3072 1420 2755 
Q 1159 2438 1159 1844 
L 1159 0 
L 581 0 
L 581 3500 
L 1159 3500 
L 1159 2956 
Q 1341 3275 1631 3429 
Q 1922 3584 2338 3584 
Q 2397 3584 2469 3576 
Q 2541 3569 2628 3553 
L 2631 2963 
z
" transform="scale(0.015625)"/>
       <path id="DejaVuSans-61" d="M 2194 1759 
Q 1497 1759 1228 1600 
Q 959 1441 959 1056 
Q 959 750 1161 570 
Q 1363 391 1709 391 
Q 2188 391 2477 730 
Q 2766 1069 2766 1631 
L 2766 1759 
L 2194 1759 
z
M 3341 1997 
L 3341 0 
L 2766 0 
L 2766 531 
Q 2569 213 2275 61 
Q 1981 -91 1556 -91 
Q 1019 -91 701 211 
Q 384 513 384 1019 
Q 384 1609 779 1909 
Q 1175 2209 1959 2209 
L 2766 2209 
L 2766 2266 
Q 2766 2663 2505 2880 
Q 2244 3097 1772 3097 
Q 1472 3097 1187 3025 
Q 903 2953 641 2809 
L 641 3341 
Q 956 3463 1253 3523 
Q 1550 3584 1831 3584 
Q 2591 3584 2966 3190 
Q 3341 2797 3341 1997 
z
" transform="scale(0.015625)"/>
       <path id="DejaVuSans-6f" d="M 1959 3097 
Q 1497 3097 1228 2736 
Q 959 2375 959 1747 
Q 959 1119 1226 758 
Q 1494 397 1959 397 
Q 2419 397 2687 759 
Q 2956 1122 2956 1747 
Q 2956 2369 2687 2733 
Q 2419 3097 1959 3097 
z
M 1959 3584 
Q 2709 3584 3137 3096 
Q 3566 2609 3566 1747 
Q 3566 888 3137 398 
Q 2709 -91 1959 -91 
Q 1206 -91 779 398 
Q 353 888 353 1747 
Q 353 2609 779 3096 
Q 1206 3584 1959 3584 
z
" transform="scale(0.015625)"/>
       <path id="DejaVuSans-6d" d="M 3328 2828 
Q 3544 3216 3844 3400 
Q 4144 3584 4550 3584 
Q 5097 3584 5394 3201 
Q 5691 2819 5691 2113 
L 5691 0 
L 5113 0 
L 5113 2094 
Q 5113 2597 4934 2840 
Q 4756 3084 4391 3084 
Q 3944 3084 3684 2787 
Q 3425 2491 3425 1978 
L 3425 0 
L 2847 0 
L 2847 2094 
Q 2847 2600 2669 2842 
Q 2491 3084 2119 3084 
Q 1678 3084 1418 2786 
Q 1159 2488 1159 1978 
L 1159 0 
L 581 0 
L 581 3500 
L 1159 3500 
L 1159 2956 
Q 1356 3278 1631 3431 
Q 1906 3584 2284 3584 
Q 2666 3584 2933 3390 
Q 3200 3197 3328 2828 
z
" transform="scale(0.015625)"/>
       <path id="DejaVuSans-69" d="M 603 3500 
L 1178 3500 
L 1178 0 
L 603 0 
L 603 3500 
z
M 603 4863 
L 1178 4863 
L 1178 4134 
L 603 4134 
L 603 4863 
z
" transform="scale(0.015625)"/>
       <path id="DejaVuSans-63" d="M 3122 3366 
L 3122 2828 
Q 2878 2963 2633 3030 
Q 2388 3097 2138 3097 
Q 1578 3097 1268 2742 
Q 959 2388 959 1747 
Q 959 1106 1268 751 
Q 1578 397 2138 397 
Q 2388 397 2633 464 
Q 2878 531 3122 666 
L 3122 134 
Q 2881 22 2623 -34 
Q 2366 -91 2075 -91 
Q 1284 -91 818 406 
Q 353 903 353 1747 
Q 353 2603 823 3093 
Q 1294 3584 2113 3584 
Q 2378 3584 2631 3529 
Q 2884 3475 3122 3366 
z
" transform="scale(0.015625)"/>
       <path id="DejaVuSans-44" d="M 1259 4147 
L 1259 519 
L 2022 519 
Q 2988 519 3436 956 
Q 3884 1394 3884 2338 
Q 3884 3275 3436 3711 
Q 2988 4147 2022 4147 
L 1259 4147 
z
M 628 4666 
L 1925 4666 
Q 3281 4666 3915 4102 
Q 4550 3538 4550 2338 
Q 4550 1131 3912 565 
Q 3275 0 1925 0 
L 628 0 
L 628 4666 
z
" transform="scale(0.015625)"/>
       <path id="DejaVuSans-73" d="M 2834 3397 
L 2834 2853 
Q 2591 2978 2328 3040 
Q 2066 3103 1784 3103 
Q 1356 3103 1142 2972 
Q 928 2841 928 2578 
Q 928 2378 1081 2264 
Q 1234 2150 1697 2047 
L 1894 2003 
Q 2506 1872 2764 1633 
Q 3022 1394 3022 966 
Q 3022 478 2636 193 
Q 2250 -91 1575 -91 
Q 1294 -91 989 -36 
Q 684 19 347 128 
L 347 722 
Q 666 556 975 473 
Q 1284 391 1588 391 
Q 1994 391 2212 530 
Q 2431 669 2431 922 
Q 2431 1156 2273 1281 
Q 2116 1406 1581 1522 
L 1381 1569 
Q 847 1681 609 1914 
Q 372 2147 372 2553 
Q 372 3047 722 3315 
Q 1072 3584 1716 3584 
Q 2034 3584 2315 3537 
Q 2597 3491 2834 3397 
z
" transform="scale(0.015625)"/>
       <path id="DejaVuSans-28" d="M 1984 4856 
Q 1566 4138 1362 3434 
Q 1159 2731 1159 2009 
Q 1159 1288 1364 580 
Q 1569 -128 1984 -844 
L 1484 -844 
Q 1016 -109 783 600 
Q 550 1309 550 2009 
Q 550 2706 781 3412 
Q 1013 4119 1484 4856 
L 1984 4856 
z
" transform="scale(0.015625)"/>
       <path id="DejaVuSans-Oblique-c5" d="M 3188 5081 
Q 3188 5278 3048 5417 
Q 2909 5556 2713 5556 
Q 2513 5556 2377 5420 
Q 2241 5284 2241 5081 
Q 2241 4884 2377 4746 
Q 2513 4609 2713 4609 
Q 2909 4609 3048 4746 
Q 3188 4884 3188 5081 
z
M 2203 4397 
Q 2034 4513 1945 4689 
Q 1856 4866 1856 5081 
Q 1856 5438 2106 5689 
Q 2356 5941 2713 5941 
Q 3069 5941 3320 5689 
Q 3572 5438 3572 5081 
Q 3572 4834 3458 4643 
Q 3344 4453 3128 4341 
L 3938 0 
L 3278 0 
L 3084 1197 
L 984 1197 
L 325 0 
L -341 0 
L 2203 4397 
z
M 2584 4044 
L 1275 1722 
L 2988 1722 
L 2584 4044 
z
" transform="scale(0.015625)"/>
       <path id="DejaVuSans-29" d="M 513 4856 
L 1013 4856 
Q 1481 4119 1714 3412 
Q 1947 2706 1947 2009 
Q 1947 1309 1714 600 
Q 1481 -109 1013 -844 
L 513 -844 
Q 928 -128 1133 580 
Q 1338 1288 1338 2009 
Q 1338 2731 1133 3434 
Q 928 4138 513 4856 
z
" transform="scale(0.015625)"/>
      </defs>
      <use xlink:href="#DejaVuSans-20" transform="translate(0 0.171875)"/>
      <use xlink:href="#DejaVuSans-49" transform="translate(31.787109 0.171875)"/>
      <use xlink:href="#DejaVuSans-6e" transform="translate(61.279297 0.171875)"/>
      <use xlink:href="#DejaVuSans-74" transform="translate(124.658203 0.171875)"/>
      <use xlink:href="#DejaVuSans-65" transform="translate(163.867188 0.171875)"/>
      <use xlink:href="#DejaVuSans-72" transform="translate(225.390625 0.171875)"/>
      <use xlink:href="#DejaVuSans-61" transform="translate(266.503906 0.171875)"/>
      <use xlink:href="#DejaVuSans-74" transform="translate(327.783203 0.171875)"/>
      <use xlink:href="#DejaVuSans-6f" transform="translate(366.992188 0.171875)"/>
      <use xlink:href="#DejaVuSans-6d" transform="translate(428.173828 0.171875)"/>
      <use xlink:href="#DejaVuSans-69" transform="translate(525.585938 0.171875)"/>
      <use xlink:href="#DejaVuSans-63" transform="translate(553.369141 0.171875)"/>
      <use xlink:href="#DejaVuSans-20" transform="translate(608.349609 0.171875)"/>
      <use xlink:href="#DejaVuSans-44" transform="translate(640.136719 0.171875)"/>
      <use xlink:href="#DejaVuSans-69" transform="translate(717.138672 0.171875)"/>
      <use xlink:href="#DejaVuSans-73" transform="translate(744.921875 0.171875)"/>
      <use xlink:href="#DejaVuSans-74" transform="translate(797.021484 0.171875)"/>
      <use xlink:href="#DejaVuSans-61" transform="translate(836.230469 0.171875)"/>
      <use xlink:href="#DejaVuSans-6e" transform="translate(897.509766 0.171875)"/>
      <use xlink:href="#DejaVuSans-63" transform="translate(960.888672 0.171875)"/>
      <use xlink:href="#DejaVuSans-65" transform="translate(1015.869141 0.171875)"/>
      <use xlink:href="#DejaVuSans-20" transform="translate(1077.392578 0.171875)"/>
      <use xlink:href="#DejaVuSans-28" transform="translate(1109.179688 0.171875)"/>
      <use xlink:href="#DejaVuSans-Oblique-c5" transform="translate(1148.193359 0.171875)"/>
      <use xlink:href="#DejaVuSans-29" transform="translate(1216.601562 0.171875)"/>
      <use xlink:href="#DejaVuSans-20" transform="translate(1255.615234 0.171875)"/>
     </g>
    </g>
   </g>
   <g id="matplotlib.axis_2">
    <g id="ytick_1">
     <g id="line2d_9">
      <path d="M 141.600469 696.693681 
L 811.200469 696.693681 
" clip-path="url(#pff2e52d8cf)" style="fill: none; stroke: #b0b0b0; stroke-width: 0.8; stroke-linecap: square"/>
     </g>
     <g id="line2d_10">
      <defs>
       <path id="mcea8bfe7c4" d="M 0 0 
L -3.5 0 
" style="stroke: #000000; stroke-width: 0.8"/>
      </defs>
      <g>
       <use xlink:href="#mcea8bfe7c4" x="141.600469" y="696.693681" style="stroke: #000000; stroke-width: 0.8"/>
      </g>
     </g>
     <g id="text_6">
      <!-- −1.1 -->
      <g transform="translate(73.893438 706.191728) scale(0.25 -0.25)">
       <defs>
        <path id="DejaVuSans-2212" d="M 678 2272 
L 4684 2272 
L 4684 1741 
L 678 1741 
L 678 2272 
z
" transform="scale(0.015625)"/>
        <path id="DejaVuSans-2e" d="M 684 794 
L 1344 794 
L 1344 0 
L 684 0 
L 684 794 
z
" transform="scale(0.015625)"/>
       </defs>
       <use xlink:href="#DejaVuSans-2212"/>
       <use xlink:href="#DejaVuSans-31" x="83.789062"/>
       <use xlink:href="#DejaVuSans-2e" x="147.412109"/>
       <use xlink:href="#DejaVuSans-31" x="179.199219"/>
      </g>
     </g>
    </g>
    <g id="ytick_2">
     <g id="line2d_11">
      <path d="M 141.600469 583.713127 
L 811.200469 583.713127 
" clip-path="url(#pff2e52d8cf)" style="fill: none; stroke: #b0b0b0; stroke-width: 0.8; stroke-linecap: square"/>
     </g>
     <g id="line2d_12">
      <g>
       <use xlink:href="#mcea8bfe7c4" x="141.600469" y="583.713127" style="stroke: #000000; stroke-width: 0.8"/>
      </g>
     </g>
     <g id="text_7">
      <!-- −1.0 -->
      <g transform="translate(73.893438 593.211174) scale(0.25 -0.25)">
       <defs>
        <path id="DejaVuSans-30" d="M 2034 4250 
Q 1547 4250 1301 3770 
Q 1056 3291 1056 2328 
Q 1056 1369 1301 889 
Q 1547 409 2034 409 
Q 2525 409 2770 889 
Q 3016 1369 3016 2328 
Q 3016 3291 2770 3770 
Q 2525 4250 2034 4250 
z
M 2034 4750 
Q 2819 4750 3233 4129 
Q 3647 3509 3647 2328 
Q 3647 1150 3233 529 
Q 2819 -91 2034 -91 
Q 1250 -91 836 529 
Q 422 1150 422 2328 
Q 422 3509 836 4129 
Q 1250 4750 2034 4750 
z
" transform="scale(0.015625)"/>
       </defs>
       <use xlink:href="#DejaVuSans-2212"/>
       <use xlink:href="#DejaVuSans-31" x="83.789062"/>
       <use xlink:href="#DejaVuSans-2e" x="147.412109"/>
       <use xlink:href="#DejaVuSans-30" x="179.199219"/>
      </g>
     </g>
    </g>
    <g id="ytick_3">
     <g id="line2d_13">
      <path d="M 141.600469 470.732572 
L 811.200469 470.732572 
" clip-path="url(#pff2e52d8cf)" style="fill: none; stroke: #b0b0b0; stroke-width: 0.8; stroke-linecap: square"/>
     </g>
     <g id="line2d_14">
      <g>
       <use xlink:href="#mcea8bfe7c4" x="141.600469" y="470.732572" style="stroke: #000000; stroke-width: 0.8"/>
      </g>
     </g>
     <g id="text_8">
      <!-- −0.9 -->
      <g transform="translate(73.893438 480.230619) scale(0.25 -0.25)">
       <defs>
        <path id="DejaVuSans-39" d="M 703 97 
L 703 672 
Q 941 559 1184 500 
Q 1428 441 1663 441 
Q 2288 441 2617 861 
Q 2947 1281 2994 2138 
Q 2813 1869 2534 1725 
Q 2256 1581 1919 1581 
Q 1219 1581 811 2004 
Q 403 2428 403 3163 
Q 403 3881 828 4315 
Q 1253 4750 1959 4750 
Q 2769 4750 3195 4129 
Q 3622 3509 3622 2328 
Q 3622 1225 3098 567 
Q 2575 -91 1691 -91 
Q 1453 -91 1209 -44 
Q 966 3 703 97 
z
M 1959 2075 
Q 2384 2075 2632 2365 
Q 2881 2656 2881 3163 
Q 2881 3666 2632 3958 
Q 2384 4250 1959 4250 
Q 1534 4250 1286 3958 
Q 1038 3666 1038 3163 
Q 1038 2656 1286 2365 
Q 1534 2075 1959 2075 
z
" transform="scale(0.015625)"/>
       </defs>
       <use xlink:href="#DejaVuSans-2212"/>
       <use xlink:href="#DejaVuSans-30" x="83.789062"/>
       <use xlink:href="#DejaVuSans-2e" x="147.412109"/>
       <use xlink:href="#DejaVuSans-39" x="179.199219"/>
      </g>
     </g>
    </g>
    <g id="ytick_4">
     <g id="line2d_15">
      <path d="M 141.600469 357.752017 
L 811.200469 357.752017 
" clip-path="url(#pff2e52d8cf)" style="fill: none; stroke: #b0b0b0; stroke-width: 0.8; stroke-linecap: square"/>
     </g>
     <g id="line2d_16">
      <g>
       <use xlink:href="#mcea8bfe7c4" x="141.600469" y="357.752017" style="stroke: #000000; stroke-width: 0.8"/>
      </g>
     </g>
     <g id="text_9">
      <!-- −0.8 -->
      <g transform="translate(73.893438 367.250064) scale(0.25 -0.25)">
       <defs>
        <path id="DejaVuSans-38" d="M 2034 2216 
Q 1584 2216 1326 1975 
Q 1069 1734 1069 1313 
Q 1069 891 1326 650 
Q 1584 409 2034 409 
Q 2484 409 2743 651 
Q 3003 894 3003 1313 
Q 3003 1734 2745 1975 
Q 2488 2216 2034 2216 
z
M 1403 2484 
Q 997 2584 770 2862 
Q 544 3141 544 3541 
Q 544 4100 942 4425 
Q 1341 4750 2034 4750 
Q 2731 4750 3128 4425 
Q 3525 4100 3525 3541 
Q 3525 3141 3298 2862 
Q 3072 2584 2669 2484 
Q 3125 2378 3379 2068 
Q 3634 1759 3634 1313 
Q 3634 634 3220 271 
Q 2806 -91 2034 -91 
Q 1263 -91 848 271 
Q 434 634 434 1313 
Q 434 1759 690 2068 
Q 947 2378 1403 2484 
z
M 1172 3481 
Q 1172 3119 1398 2916 
Q 1625 2713 2034 2713 
Q 2441 2713 2670 2916 
Q 2900 3119 2900 3481 
Q 2900 3844 2670 4047 
Q 2441 4250 2034 4250 
Q 1625 4250 1398 4047 
Q 1172 3844 1172 3481 
z
" transform="scale(0.015625)"/>
       </defs>
       <use xlink:href="#DejaVuSans-2212"/>
       <use xlink:href="#DejaVuSans-30" x="83.789062"/>
       <use xlink:href="#DejaVuSans-2e" x="147.412109"/>
       <use xlink:href="#DejaVuSans-38" x="179.199219"/>
      </g>
     </g>
    </g>
    <g id="ytick_5">
     <g id="line2d_17">
      <path d="M 141.600469 244.771462 
L 811.200469 244.771462 
" clip-path="url(#pff2e52d8cf)" style="fill: none; stroke: #b0b0b0; stroke-width: 0.8; stroke-linecap: square"/>
     </g>
     <g id="line2d_18">
      <g>
       <use xlink:href="#mcea8bfe7c4" x="141.600469" y="244.771462" style="stroke: #000000; stroke-width: 0.8"/>
      </g>
     </g>
     <g id="text_10">
      <!-- −0.7 -->
      <g transform="translate(73.893438 254.269509) scale(0.25 -0.25)">
       <defs>
        <path id="DejaVuSans-37" d="M 525 4666 
L 3525 4666 
L 3525 4397 
L 1831 0 
L 1172 0 
L 2766 4134 
L 525 4134 
L 525 4666 
z
" transform="scale(0.015625)"/>
       </defs>
       <use xlink:href="#DejaVuSans-2212"/>
       <use xlink:href="#DejaVuSans-30" x="83.789062"/>
       <use xlink:href="#DejaVuSans-2e" x="147.412109"/>
       <use xlink:href="#DejaVuSans-37" x="179.199219"/>
      </g>
     </g>
    </g>
    <g id="ytick_6">
     <g id="line2d_19">
      <path d="M 141.600469 131.790908 
L 811.200469 131.790908 
" clip-path="url(#pff2e52d8cf)" style="fill: none; stroke: #b0b0b0; stroke-width: 0.8; stroke-linecap: square"/>
     </g>
     <g id="line2d_20">
      <g>
       <use xlink:href="#mcea8bfe7c4" x="141.600469" y="131.790908" style="stroke: #000000; stroke-width: 0.8"/>
      </g>
     </g>
     <g id="text_11">
      <!-- −0.6 -->
      <g transform="translate(73.893438 141.288954) scale(0.25 -0.25)">
       <defs>
        <path id="DejaVuSans-36" d="M 2113 2584 
Q 1688 2584 1439 2293 
Q 1191 2003 1191 1497 
Q 1191 994 1439 701 
Q 1688 409 2113 409 
Q 2538 409 2786 701 
Q 3034 994 3034 1497 
Q 3034 2003 2786 2293 
Q 2538 2584 2113 2584 
z
M 3366 4563 
L 3366 3988 
Q 3128 4100 2886 4159 
Q 2644 4219 2406 4219 
Q 1781 4219 1451 3797 
Q 1122 3375 1075 2522 
Q 1259 2794 1537 2939 
Q 1816 3084 2150 3084 
Q 2853 3084 3261 2657 
Q 3669 2231 3669 1497 
Q 3669 778 3244 343 
Q 2819 -91 2113 -91 
Q 1303 -91 875 529 
Q 447 1150 447 2328 
Q 447 3434 972 4092 
Q 1497 4750 2381 4750 
Q 2619 4750 2861 4703 
Q 3103 4656 3366 4563 
z
" transform="scale(0.015625)"/>
       </defs>
       <use xlink:href="#DejaVuSans-2212"/>
       <use xlink:href="#DejaVuSans-30" x="83.789062"/>
       <use xlink:href="#DejaVuSans-2e" x="147.412109"/>
       <use xlink:href="#DejaVuSans-36" x="179.199219"/>
      </g>
     </g>
    </g>
    <g id="text_12">
     <!-- Energy ($E_H$)  -->
     <g transform="translate(30 528.17875) rotate(-90) scale(0.3 -0.3)">
      <defs>
       <path id="DejaVuSans-45" d="M 628 4666 
L 3578 4666 
L 3578 4134 
L 1259 4134 
L 1259 2753 
L 3481 2753 
L 3481 2222 
L 1259 2222 
L 1259 531 
L 3634 531 
L 3634 0 
L 628 0 
L 628 4666 
z
" transform="scale(0.015625)"/>
       <path id="DejaVuSans-67" d="M 2906 1791 
Q 2906 2416 2648 2759 
Q 2391 3103 1925 3103 
Q 1463 3103 1205 2759 
Q 947 2416 947 1791 
Q 947 1169 1205 825 
Q 1463 481 1925 481 
Q 2391 481 2648 825 
Q 2906 1169 2906 1791 
z
M 3481 434 
Q 3481 -459 3084 -895 
Q 2688 -1331 1869 -1331 
Q 1566 -1331 1297 -1286 
Q 1028 -1241 775 -1147 
L 775 -588 
Q 1028 -725 1275 -790 
Q 1522 -856 1778 -856 
Q 2344 -856 2625 -561 
Q 2906 -266 2906 331 
L 2906 616 
Q 2728 306 2450 153 
Q 2172 0 1784 0 
Q 1141 0 747 490 
Q 353 981 353 1791 
Q 353 2603 747 3093 
Q 1141 3584 1784 3584 
Q 2172 3584 2450 3431 
Q 2728 3278 2906 2969 
L 2906 3500 
L 3481 3500 
L 3481 434 
z
" transform="scale(0.015625)"/>
       <path id="DejaVuSans-79" d="M 2059 -325 
Q 1816 -950 1584 -1140 
Q 1353 -1331 966 -1331 
L 506 -1331 
L 506 -850 
L 844 -850 
Q 1081 -850 1212 -737 
Q 1344 -625 1503 -206 
L 1606 56 
L 191 3500 
L 800 3500 
L 1894 763 
L 2988 3500 
L 3597 3500 
L 2059 -325 
z
" transform="scale(0.015625)"/>
       <path id="DejaVuSans-Oblique-45" d="M 1081 4666 
L 4031 4666 
L 3928 4134 
L 1606 4134 
L 1338 2753 
L 3566 2753 
L 3463 2222 
L 1234 2222 
L 909 531 
L 3284 531 
L 3181 0 
L 172 0 
L 1081 4666 
z
" transform="scale(0.015625)"/>
       <path id="DejaVuSans-Oblique-48" d="M 1081 4666 
L 1716 4666 
L 1344 2753 
L 3634 2753 
L 4006 4666 
L 4641 4666 
L 3731 0 
L 3097 0 
L 3531 2222 
L 1241 2222 
L 806 0 
L 172 0 
L 1081 4666 
z
" transform="scale(0.015625)"/>
      </defs>
      <use xlink:href="#DejaVuSans-45" transform="translate(0 0.125)"/>
      <use xlink:href="#DejaVuSans-6e" transform="translate(63.183594 0.125)"/>
      <use xlink:href="#DejaVuSans-65" transform="translate(126.5625 0.125)"/>
      <use xlink:href="#DejaVuSans-72" transform="translate(188.085938 0.125)"/>
      <use xlink:href="#DejaVuSans-67" transform="translate(229.199219 0.125)"/>
      <use xlink:href="#DejaVuSans-79" transform="translate(292.675781 0.125)"/>
      <use xlink:href="#DejaVuSans-20" transform="translate(351.855469 0.125)"/>
      <use xlink:href="#DejaVuSans-28" transform="translate(383.642578 0.125)"/>
      <use xlink:href="#DejaVuSans-Oblique-45" transform="translate(422.65625 0.125)"/>
      <use xlink:href="#DejaVuSans-Oblique-48" transform="translate(485.839844 -16.28125) scale(0.7)"/>
      <use xlink:href="#DejaVuSans-29" transform="translate(541.210938 0.125)"/>
      <use xlink:href="#DejaVuSans-20" transform="translate(580.224609 0.125)"/>
     </g>
     <!--  -->
     <g transform="translate(63.654375 436.22875) rotate(-90) scale(0.3 -0.3)"/>
    </g>
   </g>
   <g id="line2d_21">
    <path d="M 172.036832 133.82875 
L 179.370896 345.628517 
L 186.704959 486.718987 
L 194.039023 581.923058 
L 201.373086 646.032968 
L 208.70715 688.366909 
L 216.041214 715.093702 
L 223.375277 730.480273 
L 230.709341 737.580727 
L 238.043404 738.62875 
L 245.377468 735.273905 
L 252.711531 728.736744 
L 260.045595 719.92263 
L 267.379658 709.504956 
L 274.713722 697.993318 
L 282.047785 685.782218 
L 289.381849 673.185755 
L 296.715912 660.460424 
L 304.049976 647.819135 
L 311.384039 635.439175 
L 318.718103 623.466763 
L 326.052166 612.019681 
L 333.38623 601.189238 
L 340.720294 591.042096 
L 348.054357 581.622255 
L 355.388421 572.953243 
L 362.722484 565.040524 
L 370.056548 557.87404 
L 377.390611 551.430841 
L 384.724675 545.677709 
L 392.058738 540.573376 
L 399.392802 536.07258 
L 406.726865 532.124911 
L 414.060929 528.680026 
L 421.394992 525.68757 
L 428.729056 523.098762 
L 436.063119 520.867331 
L 443.397183 518.950167 
L 450.731246 517.307706 
L 458.06531 515.904111 
L 465.399373 514.707278 
L 472.733437 513.688724 
L 480.067501 512.823381 
L 487.401564 512.089336 
L 494.735628 511.467548 
L 502.069691 510.941547 
L 509.403755 510.497141 
L 516.737818 510.122142 
L 524.071882 509.806109 
L 531.405945 509.54011 
L 538.740009 509.316522 
L 546.074072 509.128842 
L 553.408136 508.971531 
L 560.742199 508.839872 
L 568.076263 508.729855 
L 575.410326 508.63807 
L 582.74439 508.561624 
L 590.078453 508.498061 
L 597.412517 508.445301 
L 604.74658 508.401585 
L 612.080644 508.365427 
L 619.414708 508.335571 
L 626.748771 508.310962 
L 634.082835 508.290714 
L 641.416898 508.274082 
L 648.750962 508.260443 
L 656.085025 508.249277 
L 663.419089 508.240151 
L 670.753152 508.232704 
L 678.087216 508.226636 
L 685.421279 508.2217 
L 692.755343 508.217691 
L 700.089406 508.214439 
L 707.42347 508.211806 
L 714.757533 508.209678 
L 722.091597 508.207959 
L 729.42566 508.206574 
L 736.759724 508.20546 
L 744.093787 508.204564 
L 751.427851 508.203846 
L 758.761915 508.203271 
L 766.095978 508.202812 
L 773.430042 508.202445 
L 780.764105 508.202153 
" clip-path="url(#pff2e52d8cf)" style="fill: none; stroke-dasharray: 5.55,2.4; stroke-dashoffset: 0; stroke: #1f77b4; stroke-width: 1.5"/>
    <defs>
     <path id="mab1a5331dc" d="M -6 6 
L 6 -6 
M -6 -6 
L 6 6 
" style="stroke: #1f77b4"/>
    </defs>
    <g clip-path="url(#pff2e52d8cf)">
     <use xlink:href="#mab1a5331dc" x="172.036832" y="133.82875" style="fill: #1f77b4; stroke: #1f77b4"/>
     <use xlink:href="#mab1a5331dc" x="179.370896" y="345.628517" style="fill: #1f77b4; stroke: #1f77b4"/>
     <use xlink:href="#mab1a5331dc" x="186.704959" y="486.718987" style="fill: #1f77b4; stroke: #1f77b4"/>
     <use xlink:href="#mab1a5331dc" x="194.039023" y="581.923058" style="fill: #1f77b4; stroke: #1f77b4"/>
     <use xlink:href="#mab1a5331dc" x="201.373086" y="646.032968" style="fill: #1f77b4; stroke: #1f77b4"/>
     <use xlink:href="#mab1a5331dc" x="208.70715" y="688.366909" style="fill: #1f77b4; stroke: #1f77b4"/>
     <use xlink:href="#mab1a5331dc" x="216.041214" y="715.093702" style="fill: #1f77b4; stroke: #1f77b4"/>
     <use xlink:href="#mab1a5331dc" x="223.375277" y="730.480273" style="fill: #1f77b4; stroke: #1f77b4"/>
     <use xlink:href="#mab1a5331dc" x="230.709341" y="737.580727" style="fill: #1f77b4; stroke: #1f77b4"/>
     <use xlink:href="#mab1a5331dc" x="238.043404" y="738.62875" style="fill: #1f77b4; stroke: #1f77b4"/>
     <use xlink:href="#mab1a5331dc" x="245.377468" y="735.273905" style="fill: #1f77b4; stroke: #1f77b4"/>
     <use xlink:href="#mab1a5331dc" x="252.711531" y="728.736744" style="fill: #1f77b4; stroke: #1f77b4"/>
     <use xlink:href="#mab1a5331dc" x="260.045595" y="719.92263" style="fill: #1f77b4; stroke: #1f77b4"/>
     <use xlink:href="#mab1a5331dc" x="267.379658" y="709.504956" style="fill: #1f77b4; stroke: #1f77b4"/>
     <use xlink:href="#mab1a5331dc" x="274.713722" y="697.993318" style="fill: #1f77b4; stroke: #1f77b4"/>
     <use xlink:href="#mab1a5331dc" x="282.047785" y="685.782218" style="fill: #1f77b4; stroke: #1f77b4"/>
     <use xlink:href="#mab1a5331dc" x="289.381849" y="673.185755" style="fill: #1f77b4; stroke: #1f77b4"/>
     <use xlink:href="#mab1a5331dc" x="296.715912" y="660.460424" style="fill: #1f77b4; stroke: #1f77b4"/>
     <use xlink:href="#mab1a5331dc" x="304.049976" y="647.819135" style="fill: #1f77b4; stroke: #1f77b4"/>
     <use xlink:href="#mab1a5331dc" x="311.384039" y="635.439175" style="fill: #1f77b4; stroke: #1f77b4"/>
     <use xlink:href="#mab1a5331dc" x="318.718103" y="623.466763" style="fill: #1f77b4; stroke: #1f77b4"/>
     <use xlink:href="#mab1a5331dc" x="326.052166" y="612.019681" style="fill: #1f77b4; stroke: #1f77b4"/>
     <use xlink:href="#mab1a5331dc" x="333.38623" y="601.189238" style="fill: #1f77b4; stroke: #1f77b4"/>
     <use xlink:href="#mab1a5331dc" x="340.720294" y="591.042096" style="fill: #1f77b4; stroke: #1f77b4"/>
     <use xlink:href="#mab1a5331dc" x="348.054357" y="581.622255" style="fill: #1f77b4; stroke: #1f77b4"/>
     <use xlink:href="#mab1a5331dc" x="355.388421" y="572.953243" style="fill: #1f77b4; stroke: #1f77b4"/>
     <use xlink:href="#mab1a5331dc" x="362.722484" y="565.040524" style="fill: #1f77b4; stroke: #1f77b4"/>
     <use xlink:href="#mab1a5331dc" x="370.056548" y="557.87404" style="fill: #1f77b4; stroke: #1f77b4"/>
     <use xlink:href="#mab1a5331dc" x="377.390611" y="551.430841" style="fill: #1f77b4; stroke: #1f77b4"/>
     <use xlink:href="#mab1a5331dc" x="384.724675" y="545.677709" style="fill: #1f77b4; stroke: #1f77b4"/>
     <use xlink:href="#mab1a5331dc" x="392.058738" y="540.573376" style="fill: #1f77b4; stroke: #1f77b4"/>
     <use xlink:href="#mab1a5331dc" x="399.392802" y="536.07258" style="fill: #1f77b4; stroke: #1f77b4"/>
     <use xlink:href="#mab1a5331dc" x="406.726865" y="532.124911" style="fill: #1f77b4; stroke: #1f77b4"/>
     <use xlink:href="#mab1a5331dc" x="414.060929" y="528.680026" style="fill: #1f77b4; stroke: #1f77b4"/>
     <use xlink:href="#mab1a5331dc" x="421.394992" y="525.68757" style="fill: #1f77b4; stroke: #1f77b4"/>
     <use xlink:href="#mab1a5331dc" x="428.729056" y="523.098762" style="fill: #1f77b4; stroke: #1f77b4"/>
     <use xlink:href="#mab1a5331dc" x="436.063119" y="520.867331" style="fill: #1f77b4; stroke: #1f77b4"/>
     <use xlink:href="#mab1a5331dc" x="443.397183" y="518.950167" style="fill: #1f77b4; stroke: #1f77b4"/>
     <use xlink:href="#mab1a5331dc" x="450.731246" y="517.307706" style="fill: #1f77b4; stroke: #1f77b4"/>
     <use xlink:href="#mab1a5331dc" x="458.06531" y="515.904111" style="fill: #1f77b4; stroke: #1f77b4"/>
     <use xlink:href="#mab1a5331dc" x="465.399373" y="514.707278" style="fill: #1f77b4; stroke: #1f77b4"/>
     <use xlink:href="#mab1a5331dc" x="472.733437" y="513.688724" style="fill: #1f77b4; stroke: #1f77b4"/>
     <use xlink:href="#mab1a5331dc" x="480.067501" y="512.823381" style="fill: #1f77b4; stroke: #1f77b4"/>
     <use xlink:href="#mab1a5331dc" x="487.401564" y="512.089336" style="fill: #1f77b4; stroke: #1f77b4"/>
     <use xlink:href="#mab1a5331dc" x="494.735628" y="511.467548" style="fill: #1f77b4; stroke: #1f77b4"/>
     <use xlink:href="#mab1a5331dc" x="502.069691" y="510.941547" style="fill: #1f77b4; stroke: #1f77b4"/>
     <use xlink:href="#mab1a5331dc" x="509.403755" y="510.497141" style="fill: #1f77b4; stroke: #1f77b4"/>
     <use xlink:href="#mab1a5331dc" x="516.737818" y="510.122142" style="fill: #1f77b4; stroke: #1f77b4"/>
     <use xlink:href="#mab1a5331dc" x="524.071882" y="509.806109" style="fill: #1f77b4; stroke: #1f77b4"/>
     <use xlink:href="#mab1a5331dc" x="531.405945" y="509.54011" style="fill: #1f77b4; stroke: #1f77b4"/>
     <use xlink:href="#mab1a5331dc" x="538.740009" y="509.316522" style="fill: #1f77b4; stroke: #1f77b4"/>
     <use xlink:href="#mab1a5331dc" x="546.074072" y="509.128842" style="fill: #1f77b4; stroke: #1f77b4"/>
     <use xlink:href="#mab1a5331dc" x="553.408136" y="508.971531" style="fill: #1f77b4; stroke: #1f77b4"/>
     <use xlink:href="#mab1a5331dc" x="560.742199" y="508.839872" style="fill: #1f77b4; stroke: #1f77b4"/>
     <use xlink:href="#mab1a5331dc" x="568.076263" y="508.729855" style="fill: #1f77b4; stroke: #1f77b4"/>
     <use xlink:href="#mab1a5331dc" x="575.410326" y="508.63807" style="fill: #1f77b4; stroke: #1f77b4"/>
     <use xlink:href="#mab1a5331dc" x="582.74439" y="508.561624" style="fill: #1f77b4; stroke: #1f77b4"/>
     <use xlink:href="#mab1a5331dc" x="590.078453" y="508.498061" style="fill: #1f77b4; stroke: #1f77b4"/>
     <use xlink:href="#mab1a5331dc" x="597.412517" y="508.445301" style="fill: #1f77b4; stroke: #1f77b4"/>
     <use xlink:href="#mab1a5331dc" x="604.74658" y="508.401585" style="fill: #1f77b4; stroke: #1f77b4"/>
     <use xlink:href="#mab1a5331dc" x="612.080644" y="508.365427" style="fill: #1f77b4; stroke: #1f77b4"/>
     <use xlink:href="#mab1a5331dc" x="619.414708" y="508.335571" style="fill: #1f77b4; stroke: #1f77b4"/>
     <use xlink:href="#mab1a5331dc" x="626.748771" y="508.310962" style="fill: #1f77b4; stroke: #1f77b4"/>
     <use xlink:href="#mab1a5331dc" x="634.082835" y="508.290714" style="fill: #1f77b4; stroke: #1f77b4"/>
     <use xlink:href="#mab1a5331dc" x="641.416898" y="508.274082" style="fill: #1f77b4; stroke: #1f77b4"/>
     <use xlink:href="#mab1a5331dc" x="648.750962" y="508.260443" style="fill: #1f77b4; stroke: #1f77b4"/>
     <use xlink:href="#mab1a5331dc" x="656.085025" y="508.249277" style="fill: #1f77b4; stroke: #1f77b4"/>
     <use xlink:href="#mab1a5331dc" x="663.419089" y="508.240151" style="fill: #1f77b4; stroke: #1f77b4"/>
     <use xlink:href="#mab1a5331dc" x="670.753152" y="508.232704" style="fill: #1f77b4; stroke: #1f77b4"/>
     <use xlink:href="#mab1a5331dc" x="678.087216" y="508.226636" style="fill: #1f77b4; stroke: #1f77b4"/>
     <use xlink:href="#mab1a5331dc" x="685.421279" y="508.2217" style="fill: #1f77b4; stroke: #1f77b4"/>
     <use xlink:href="#mab1a5331dc" x="692.755343" y="508.217691" style="fill: #1f77b4; stroke: #1f77b4"/>
     <use xlink:href="#mab1a5331dc" x="700.089406" y="508.214439" style="fill: #1f77b4; stroke: #1f77b4"/>
     <use xlink:href="#mab1a5331dc" x="707.42347" y="508.211806" style="fill: #1f77b4; stroke: #1f77b4"/>
     <use xlink:href="#mab1a5331dc" x="714.757533" y="508.209678" style="fill: #1f77b4; stroke: #1f77b4"/>
     <use xlink:href="#mab1a5331dc" x="722.091597" y="508.207959" style="fill: #1f77b4; stroke: #1f77b4"/>
     <use xlink:href="#mab1a5331dc" x="729.42566" y="508.206574" style="fill: #1f77b4; stroke: #1f77b4"/>
     <use xlink:href="#mab1a5331dc" x="736.759724" y="508.20546" style="fill: #1f77b4; stroke: #1f77b4"/>
     <use xlink:href="#mab1a5331dc" x="744.093787" y="508.204564" style="fill: #1f77b4; stroke: #1f77b4"/>
     <use xlink:href="#mab1a5331dc" x="751.427851" y="508.203846" style="fill: #1f77b4; stroke: #1f77b4"/>
     <use xlink:href="#mab1a5331dc" x="758.761915" y="508.203271" style="fill: #1f77b4; stroke: #1f77b4"/>
     <use xlink:href="#mab1a5331dc" x="766.095978" y="508.202812" style="fill: #1f77b4; stroke: #1f77b4"/>
     <use xlink:href="#mab1a5331dc" x="773.430042" y="508.202445" style="fill: #1f77b4; stroke: #1f77b4"/>
     <use xlink:href="#mab1a5331dc" x="780.764105" y="508.202153" style="fill: #1f77b4; stroke: #1f77b4"/>
    </g>
   </g>
   <g id="patch_3">
    <path d="M 141.600469 768.86875 
L 141.600469 103.58875 
" style="fill: none; stroke: #000000; stroke-width: 0.8; stroke-linejoin: miter; stroke-linecap: square"/>
   </g>
   <g id="patch_4">
    <path d="M 811.200469 768.86875 
L 811.200469 103.58875 
" style="fill: none; stroke: #000000; stroke-width: 0.8; stroke-linejoin: miter; stroke-linecap: square"/>
   </g>
   <g id="patch_5">
    <path d="M 141.600469 768.86875 
L 811.200469 768.86875 
" style="fill: none; stroke: #000000; stroke-width: 0.8; stroke-linejoin: miter; stroke-linecap: square"/>
   </g>
   <g id="patch_6">
    <path d="M 141.600469 103.58875 
L 811.200469 103.58875 
" style="fill: none; stroke: #000000; stroke-width: 0.8; stroke-linejoin: miter; stroke-linecap: square"/>
   </g>
   <g id="text_13">
    <!-- Energy and Entanglement of Formation -->
    <g transform="translate(180.722344 29.995312) scale(0.3 -0.3)">
     <defs>
      <path id="DejaVuSans-64" d="M 2906 2969 
L 2906 4863 
L 3481 4863 
L 3481 0 
L 2906 0 
L 2906 525 
Q 2725 213 2448 61 
Q 2172 -91 1784 -91 
Q 1150 -91 751 415 
Q 353 922 353 1747 
Q 353 2572 751 3078 
Q 1150 3584 1784 3584 
Q 2172 3584 2448 3432 
Q 2725 3281 2906 2969 
z
M 947 1747 
Q 947 1113 1208 752 
Q 1469 391 1925 391 
Q 2381 391 2643 752 
Q 2906 1113 2906 1747 
Q 2906 2381 2643 2742 
Q 2381 3103 1925 3103 
Q 1469 3103 1208 2742 
Q 947 2381 947 1747 
z
" transform="scale(0.015625)"/>
      <path id="DejaVuSans-6c" d="M 603 4863 
L 1178 4863 
L 1178 0 
L 603 0 
L 603 4863 
z
" transform="scale(0.015625)"/>
      <path id="DejaVuSans-66" d="M 2375 4863 
L 2375 4384 
L 1825 4384 
Q 1516 4384 1395 4259 
Q 1275 4134 1275 3809 
L 1275 3500 
L 2222 3500 
L 2222 3053 
L 1275 3053 
L 1275 0 
L 697 0 
L 697 3053 
L 147 3053 
L 147 3500 
L 697 3500 
L 697 3744 
Q 697 4328 969 4595 
Q 1241 4863 1831 4863 
L 2375 4863 
z
" transform="scale(0.015625)"/>
      <path id="DejaVuSans-46" d="M 628 4666 
L 3309 4666 
L 3309 4134 
L 1259 4134 
L 1259 2759 
L 3109 2759 
L 3109 2228 
L 1259 2228 
L 1259 0 
L 628 0 
L 628 4666 
z
" transform="scale(0.015625)"/>
     </defs>
     <use xlink:href="#DejaVuSans-45"/>
     <use xlink:href="#DejaVuSans-6e" x="63.183594"/>
     <use xlink:href="#DejaVuSans-65" x="126.5625"/>
     <use xlink:href="#DejaVuSans-72" x="188.085938"/>
     <use xlink:href="#DejaVuSans-67" x="227.449219"/>
     <use xlink:href="#DejaVuSans-79" x="290.925781"/>
     <use xlink:href="#DejaVuSans-20" x="350.105469"/>
     <use xlink:href="#DejaVuSans-61" x="381.892578"/>
     <use xlink:href="#DejaVuSans-6e" x="443.171875"/>
     <use xlink:href="#DejaVuSans-64" x="506.550781"/>
     <use xlink:href="#DejaVuSans-20" x="570.027344"/>
     <use xlink:href="#DejaVuSans-45" x="601.814453"/>
     <use xlink:href="#DejaVuSans-6e" x="664.998047"/>
     <use xlink:href="#DejaVuSans-74" x="728.376953"/>
     <use xlink:href="#DejaVuSans-61" x="767.585938"/>
     <use xlink:href="#DejaVuSans-6e" x="828.865234"/>
     <use xlink:href="#DejaVuSans-67" x="892.244141"/>
     <use xlink:href="#DejaVuSans-6c" x="955.720703"/>
     <use xlink:href="#DejaVuSans-65" x="983.503906"/>
     <use xlink:href="#DejaVuSans-6d" x="1045.027344"/>
     <use xlink:href="#DejaVuSans-65" x="1142.439453"/>
     <use xlink:href="#DejaVuSans-6e" x="1203.962891"/>
     <use xlink:href="#DejaVuSans-74" x="1267.341797"/>
     <use xlink:href="#DejaVuSans-20" x="1306.550781"/>
     <use xlink:href="#DejaVuSans-6f" x="1338.337891"/>
     <use xlink:href="#DejaVuSans-66" x="1399.519531"/>
     <use xlink:href="#DejaVuSans-20" x="1434.724609"/>
     <use xlink:href="#DejaVuSans-46" x="1466.511719"/>
     <use xlink:href="#DejaVuSans-6f" x="1520.40625"/>
     <use xlink:href="#DejaVuSans-72" x="1581.587891"/>
     <use xlink:href="#DejaVuSans-6d" x="1620.951172"/>
     <use xlink:href="#DejaVuSans-61" x="1718.363281"/>
     <use xlink:href="#DejaVuSans-74" x="1779.642578"/>
     <use xlink:href="#DejaVuSans-69" x="1818.851562"/>
     <use xlink:href="#DejaVuSans-6f" x="1846.634766"/>
     <use xlink:href="#DejaVuSans-6e" x="1907.816406"/>
    </g>
    <!-- vs Interatomic Distance for $\text{H}_2$ -->
    <g transform="translate(249.300469 63.58875) scale(0.3 -0.3)">
     <defs>
      <path id="DejaVuSans-76" d="M 191 3500 
L 800 3500 
L 1894 563 
L 2988 3500 
L 3597 3500 
L 2284 0 
L 1503 0 
L 191 3500 
z
" transform="scale(0.015625)"/>
      <path id="DejaVuSans-48" d="M 628 4666 
L 1259 4666 
L 1259 2753 
L 3553 2753 
L 3553 4666 
L 4184 4666 
L 4184 0 
L 3553 0 
L 3553 2222 
L 1259 2222 
L 1259 0 
L 628 0 
L 628 4666 
z
" transform="scale(0.015625)"/>
     </defs>
     <use xlink:href="#DejaVuSans-76" transform="translate(0 0.015625)"/>
     <use xlink:href="#DejaVuSans-73" transform="translate(59.179688 0.015625)"/>
     <use xlink:href="#DejaVuSans-20" transform="translate(111.279297 0.015625)"/>
     <use xlink:href="#DejaVuSans-49" transform="translate(143.066406 0.015625)"/>
     <use xlink:href="#DejaVuSans-6e" transform="translate(172.558594 0.015625)"/>
     <use xlink:href="#DejaVuSans-74" transform="translate(235.9375 0.015625)"/>
     <use xlink:href="#DejaVuSans-65" transform="translate(275.146484 0.015625)"/>
     <use xlink:href="#DejaVuSans-72" transform="translate(336.669922 0.015625)"/>
     <use xlink:href="#DejaVuSans-61" transform="translate(377.783203 0.015625)"/>
     <use xlink:href="#DejaVuSans-74" transform="translate(439.0625 0.015625)"/>
     <use xlink:href="#DejaVuSans-6f" transform="translate(478.271484 0.015625)"/>
     <use xlink:href="#DejaVuSans-6d" transform="translate(539.453125 0.015625)"/>
     <use xlink:href="#DejaVuSans-69" transform="translate(636.865234 0.015625)"/>
     <use xlink:href="#DejaVuSans-63" transform="translate(664.648438 0.015625)"/>
     <use xlink:href="#DejaVuSans-20" transform="translate(719.628906 0.015625)"/>
     <use xlink:href="#DejaVuSans-44" transform="translate(751.416016 0.015625)"/>
     <use xlink:href="#DejaVuSans-69" transform="translate(828.417969 0.015625)"/>
     <use xlink:href="#DejaVuSans-73" transform="translate(856.201172 0.015625)"/>
     <use xlink:href="#DejaVuSans-74" transform="translate(908.300781 0.015625)"/>
     <use xlink:href="#DejaVuSans-61" transform="translate(947.509766 0.015625)"/>
     <use xlink:href="#DejaVuSans-6e" transform="translate(1008.789062 0.015625)"/>
     <use xlink:href="#DejaVuSans-63" transform="translate(1072.167969 0.015625)"/>
     <use xlink:href="#DejaVuSans-65" transform="translate(1127.148438 0.015625)"/>
     <use xlink:href="#DejaVuSans-20" transform="translate(1188.671875 0.015625)"/>
     <use xlink:href="#DejaVuSans-66" transform="translate(1220.458984 0.015625)"/>
     <use xlink:href="#DejaVuSans-6f" transform="translate(1255.664062 0.015625)"/>
     <use xlink:href="#DejaVuSans-72" transform="translate(1316.845703 0.015625)"/>
     <use xlink:href="#DejaVuSans-20" transform="translate(1357.958984 0.015625)"/>
     <use xlink:href="#DejaVuSans-48" transform="translate(1389.746094 0.015625)"/>
     <use xlink:href="#DejaVuSans-32" transform="translate(1465.898438 -16.390625) scale(0.7)"/>
    </g>
   </g>
  </g>
  <g id="axes_2">
   <g id="matplotlib.axis_3">
    <g id="ytick_7">
     <g id="line2d_22">
      <defs>
       <path id="m47f60967a5" d="M 0 0 
L 3.5 0 
" style="stroke: #000000; stroke-width: 0.8"/>
      </defs>
      <g>
       <use xlink:href="#m47f60967a5" x="811.200469" y="754.01592" style="stroke: #000000; stroke-width: 0.8"/>
      </g>
     </g>
     <g id="text_14">
      <!-- 0.0 -->
      <g transform="translate(818.200469 763.513967) scale(0.25 -0.25)">
       <use xlink:href="#DejaVuSans-30"/>
       <use xlink:href="#DejaVuSans-2e" x="63.623047"/>
       <use xlink:href="#DejaVuSans-30" x="95.410156"/>
      </g>
     </g>
    </g>
    <g id="ytick_8">
     <g id="line2d_23">
      <g>
       <use xlink:href="#m47f60967a5" x="811.200469" y="629.977322" style="stroke: #000000; stroke-width: 0.8"/>
      </g>
     </g>
     <g id="text_15">
      <!-- 0.2 -->
      <g transform="translate(818.200469 639.475369) scale(0.25 -0.25)">
       <use xlink:href="#DejaVuSans-30"/>
       <use xlink:href="#DejaVuSans-2e" x="63.623047"/>
       <use xlink:href="#DejaVuSans-32" x="95.410156"/>
      </g>
     </g>
    </g>
    <g id="ytick_9">
     <g id="line2d_24">
      <g>
       <use xlink:href="#m47f60967a5" x="811.200469" y="505.938724" style="stroke: #000000; stroke-width: 0.8"/>
      </g>
     </g>
     <g id="text_16">
      <!-- 0.4 -->
      <g transform="translate(818.200469 515.43677) scale(0.25 -0.25)">
       <use xlink:href="#DejaVuSans-30"/>
       <use xlink:href="#DejaVuSans-2e" x="63.623047"/>
       <use xlink:href="#DejaVuSans-34" x="95.410156"/>
      </g>
     </g>
    </g>
    <g id="ytick_10">
     <g id="line2d_25">
      <g>
       <use xlink:href="#m47f60967a5" x="811.200469" y="381.900125" style="stroke: #000000; stroke-width: 0.8"/>
      </g>
     </g>
     <g id="text_17">
      <!-- 0.6 -->
      <g transform="translate(818.200469 391.398172) scale(0.25 -0.25)">
       <use xlink:href="#DejaVuSans-30"/>
       <use xlink:href="#DejaVuSans-2e" x="63.623047"/>
       <use xlink:href="#DejaVuSans-36" x="95.410156"/>
      </g>
     </g>
    </g>
    <g id="ytick_11">
     <g id="line2d_26">
      <g>
       <use xlink:href="#m47f60967a5" x="811.200469" y="257.861527" style="stroke: #000000; stroke-width: 0.8"/>
      </g>
     </g>
     <g id="text_18">
      <!-- 0.8 -->
      <g transform="translate(818.200469 267.359574) scale(0.25 -0.25)">
       <use xlink:href="#DejaVuSans-30"/>
       <use xlink:href="#DejaVuSans-2e" x="63.623047"/>
       <use xlink:href="#DejaVuSans-38" x="95.410156"/>
      </g>
     </g>
    </g>
    <g id="ytick_12">
     <g id="line2d_27">
      <g>
       <use xlink:href="#m47f60967a5" x="811.200469" y="133.822929" style="stroke: #000000; stroke-width: 0.8"/>
      </g>
     </g>
     <g id="text_19">
      <!-- 1.0 -->
      <g transform="translate(818.200469 143.320976) scale(0.25 -0.25)">
       <use xlink:href="#DejaVuSans-31"/>
       <use xlink:href="#DejaVuSans-2e" x="63.623047"/>
       <use xlink:href="#DejaVuSans-30" x="95.410156"/>
      </g>
     </g>
    </g>
    <g id="text_20">
     <!-- EoF ($A.U.$) -->
     <g transform="translate(884.753594 516.62875) rotate(-90) scale(0.3 -0.3)">
      <defs>
       <path id="DejaVuSans-Oblique-41" d="M 2356 4666 
L 3072 4666 
L 3938 0 
L 3278 0 
L 3084 1197 
L 984 1197 
L 325 0 
L -341 0 
L 2356 4666 
z
M 2584 4044 
L 1275 1722 
L 2988 1722 
L 2584 4044 
z
" transform="scale(0.015625)"/>
       <path id="DejaVuSans-Oblique-55" d="M 991 4666 
L 1625 4666 
L 1075 1831 
Q 1041 1641 1027 1517 
Q 1013 1394 1013 1300 
Q 1013 869 1253 645 
Q 1494 422 1959 422 
Q 2563 422 2898 753 
Q 3234 1084 3378 1831 
L 3928 4666 
L 4563 4666 
L 4000 1753 
Q 3816 809 3300 359 
Q 2784 -91 1888 -91 
Q 1188 -91 780 261 
Q 372 613 372 1216 
Q 372 1325 387 1461 
Q 403 1597 434 1753 
L 991 4666 
z
" transform="scale(0.015625)"/>
      </defs>
      <use xlink:href="#DejaVuSans-45" transform="translate(0 0.125)"/>
      <use xlink:href="#DejaVuSans-6f" transform="translate(63.183594 0.125)"/>
      <use xlink:href="#DejaVuSans-46" transform="translate(124.365234 0.125)"/>
      <use xlink:href="#DejaVuSans-20" transform="translate(181.884766 0.125)"/>
      <use xlink:href="#DejaVuSans-28" transform="translate(213.671875 0.125)"/>
      <use xlink:href="#DejaVuSans-Oblique-41" transform="translate(252.685547 0.125)"/>
      <use xlink:href="#DejaVuSans-2e" transform="translate(321.09375 0.125)"/>
      <use xlink:href="#DejaVuSans-Oblique-55" transform="translate(372.363281 0.125)"/>
      <use xlink:href="#DejaVuSans-2e" transform="translate(445.556641 0.125)"/>
      <use xlink:href="#DejaVuSans-29" transform="translate(496.826172 0.125)"/>
     </g>
    </g>
   </g>
   <g id="line2d_28">
    <path d="M 172.036832 738.62875 
L 179.370896 736.102415 
L 186.704959 733.042728 
L 194.039023 729.392846 
L 201.373086 725.090158 
L 208.70715 720.068425 
L 216.041214 714.260341 
L 223.375277 707.599276 
L 230.709341 700.019172 
L 238.043404 691.452762 
L 245.377468 681.828935 
L 252.711531 670.615277 
L 260.045595 658.752622 
L 267.379658 645.603949 
L 274.713722 631.07719 
L 282.047785 615.086194 
L 289.381849 597.558744 
L 296.715912 578.44484 
L 304.049976 558.059578 
L 311.384039 536.274574 
L 318.718103 513.317771 
L 326.052166 489.396288 
L 333.38623 464.765751 
L 340.720294 439.720842 
L 348.054357 414.582027 
L 355.388421 389.679383 
L 362.722484 365.335788 
L 370.056548 341.850303 
L 377.390611 319.48385 
L 384.724675 298.448417 
L 392.058738 279.554228 
L 399.392802 260.939695 
L 406.726865 244.610603 
L 414.060929 229.908837 
L 421.394992 216.789177 
L 428.729056 205.174484 
L 436.063119 194.96498 
L 443.397183 186.046919 
L 450.731246 178.299724 
L 458.06531 171.601966 
L 465.399373 165.835555 
L 472.733437 160.88908 
L 480.067501 156.659429 
L 487.401564 153.05286 
L 494.735628 149.985308 
L 502.069691 147.3822 
L 509.403755 145.177897 
L 516.737818 143.315022 
L 524.071882 141.743748 
L 531.405945 140.420899 
L 538.740009 139.309296 
L 546.074072 138.376931 
L 553.408136 137.596362 
L 560.742199 136.944112 
L 568.076263 136.400121 
L 575.410326 135.947288 
L 582.74439 135.571038 
L 590.078453 135.259035 
L 597.412517 135.000788 
L 604.74658 134.787437 
L 612.080644 134.611508 
L 619.414708 134.466709 
L 626.748771 134.347726 
L 634.082835 134.250142 
L 641.416898 134.170237 
L 648.750962 134.104925 
L 656.085025 134.051609 
L 663.419089 134.008161 
L 670.753152 133.972808 
L 678.087216 133.944078 
L 685.421279 133.92077 
L 692.755343 133.901871 
L 700.089406 133.886578 
L 707.42347 133.874207 
L 714.757533 133.864217 
L 722.091597 133.856151 
L 729.42566 133.849653 
L 736.759724 133.844418 
L 744.093787 133.840206 
L 751.427851 133.836826 
L 758.761915 133.834096 
L 766.095978 133.83191 
L 773.430042 133.830157 
L 780.764105 133.82875 
" clip-path="url(#pff2e52d8cf)" style="fill: none; stroke-dasharray: 5.55,2.4; stroke-dashoffset: 0; stroke: #ff7f0e; stroke-width: 1.5"/>
    <defs>
     <path id="mbfd354863c" d="M -6 0 
L 6 0 
M 0 6 
L 0 -6 
" style="stroke: #ff7f0e"/>
    </defs>
    <g clip-path="url(#pff2e52d8cf)">
     <use xlink:href="#mbfd354863c" x="172.036832" y="738.62875" style="fill: #ff7f0e; stroke: #ff7f0e"/>
     <use xlink:href="#mbfd354863c" x="179.370896" y="736.102415" style="fill: #ff7f0e; stroke: #ff7f0e"/>
     <use xlink:href="#mbfd354863c" x="186.704959" y="733.042728" style="fill: #ff7f0e; stroke: #ff7f0e"/>
     <use xlink:href="#mbfd354863c" x="194.039023" y="729.392846" style="fill: #ff7f0e; stroke: #ff7f0e"/>
     <use xlink:href="#mbfd354863c" x="201.373086" y="725.090158" style="fill: #ff7f0e; stroke: #ff7f0e"/>
     <use xlink:href="#mbfd354863c" x="208.70715" y="720.068425" style="fill: #ff7f0e; stroke: #ff7f0e"/>
     <use xlink:href="#mbfd354863c" x="216.041214" y="714.260341" style="fill: #ff7f0e; stroke: #ff7f0e"/>
     <use xlink:href="#mbfd354863c" x="223.375277" y="707.599276" style="fill: #ff7f0e; stroke: #ff7f0e"/>
     <use xlink:href="#mbfd354863c" x="230.709341" y="700.019172" style="fill: #ff7f0e; stroke: #ff7f0e"/>
     <use xlink:href="#mbfd354863c" x="238.043404" y="691.452762" style="fill: #ff7f0e; stroke: #ff7f0e"/>
     <use xlink:href="#mbfd354863c" x="245.377468" y="681.828935" style="fill: #ff7f0e; stroke: #ff7f0e"/>
     <use xlink:href="#mbfd354863c" x="252.711531" y="670.615277" style="fill: #ff7f0e; stroke: #ff7f0e"/>
     <use xlink:href="#mbfd354863c" x="260.045595" y="658.752622" style="fill: #ff7f0e; stroke: #ff7f0e"/>
     <use xlink:href="#mbfd354863c" x="267.379658" y="645.603949" style="fill: #ff7f0e; stroke: #ff7f0e"/>
     <use xlink:href="#mbfd354863c" x="274.713722" y="631.07719" style="fill: #ff7f0e; stroke: #ff7f0e"/>
     <use xlink:href="#mbfd354863c" x="282.047785" y="615.086194" style="fill: #ff7f0e; stroke: #ff7f0e"/>
     <use xlink:href="#mbfd354863c" x="289.381849" y="597.558744" style="fill: #ff7f0e; stroke: #ff7f0e"/>
     <use xlink:href="#mbfd354863c" x="296.715912" y="578.44484" style="fill: #ff7f0e; stroke: #ff7f0e"/>
     <use xlink:href="#mbfd354863c" x="304.049976" y="558.059578" style="fill: #ff7f0e; stroke: #ff7f0e"/>
     <use xlink:href="#mbfd354863c" x="311.384039" y="536.274574" style="fill: #ff7f0e; stroke: #ff7f0e"/>
     <use xlink:href="#mbfd354863c" x="318.718103" y="513.317771" style="fill: #ff7f0e; stroke: #ff7f0e"/>
     <use xlink:href="#mbfd354863c" x="326.052166" y="489.396288" style="fill: #ff7f0e; stroke: #ff7f0e"/>
     <use xlink:href="#mbfd354863c" x="333.38623" y="464.765751" style="fill: #ff7f0e; stroke: #ff7f0e"/>
     <use xlink:href="#mbfd354863c" x="340.720294" y="439.720842" style="fill: #ff7f0e; stroke: #ff7f0e"/>
     <use xlink:href="#mbfd354863c" x="348.054357" y="414.582027" style="fill: #ff7f0e; stroke: #ff7f0e"/>
     <use xlink:href="#mbfd354863c" x="355.388421" y="389.679383" style="fill: #ff7f0e; stroke: #ff7f0e"/>
     <use xlink:href="#mbfd354863c" x="362.722484" y="365.335788" style="fill: #ff7f0e; stroke: #ff7f0e"/>
     <use xlink:href="#mbfd354863c" x="370.056548" y="341.850303" style="fill: #ff7f0e; stroke: #ff7f0e"/>
     <use xlink:href="#mbfd354863c" x="377.390611" y="319.48385" style="fill: #ff7f0e; stroke: #ff7f0e"/>
     <use xlink:href="#mbfd354863c" x="384.724675" y="298.448417" style="fill: #ff7f0e; stroke: #ff7f0e"/>
     <use xlink:href="#mbfd354863c" x="392.058738" y="279.554228" style="fill: #ff7f0e; stroke: #ff7f0e"/>
     <use xlink:href="#mbfd354863c" x="399.392802" y="260.939695" style="fill: #ff7f0e; stroke: #ff7f0e"/>
     <use xlink:href="#mbfd354863c" x="406.726865" y="244.610603" style="fill: #ff7f0e; stroke: #ff7f0e"/>
     <use xlink:href="#mbfd354863c" x="414.060929" y="229.908837" style="fill: #ff7f0e; stroke: #ff7f0e"/>
     <use xlink:href="#mbfd354863c" x="421.394992" y="216.789177" style="fill: #ff7f0e; stroke: #ff7f0e"/>
     <use xlink:href="#mbfd354863c" x="428.729056" y="205.174484" style="fill: #ff7f0e; stroke: #ff7f0e"/>
     <use xlink:href="#mbfd354863c" x="436.063119" y="194.96498" style="fill: #ff7f0e; stroke: #ff7f0e"/>
     <use xlink:href="#mbfd354863c" x="443.397183" y="186.046919" style="fill: #ff7f0e; stroke: #ff7f0e"/>
     <use xlink:href="#mbfd354863c" x="450.731246" y="178.299724" style="fill: #ff7f0e; stroke: #ff7f0e"/>
     <use xlink:href="#mbfd354863c" x="458.06531" y="171.601966" style="fill: #ff7f0e; stroke: #ff7f0e"/>
     <use xlink:href="#mbfd354863c" x="465.399373" y="165.835555" style="fill: #ff7f0e; stroke: #ff7f0e"/>
     <use xlink:href="#mbfd354863c" x="472.733437" y="160.88908" style="fill: #ff7f0e; stroke: #ff7f0e"/>
     <use xlink:href="#mbfd354863c" x="480.067501" y="156.659429" style="fill: #ff7f0e; stroke: #ff7f0e"/>
     <use xlink:href="#mbfd354863c" x="487.401564" y="153.05286" style="fill: #ff7f0e; stroke: #ff7f0e"/>
     <use xlink:href="#mbfd354863c" x="494.735628" y="149.985308" style="fill: #ff7f0e; stroke: #ff7f0e"/>
     <use xlink:href="#mbfd354863c" x="502.069691" y="147.3822" style="fill: #ff7f0e; stroke: #ff7f0e"/>
     <use xlink:href="#mbfd354863c" x="509.403755" y="145.177897" style="fill: #ff7f0e; stroke: #ff7f0e"/>
     <use xlink:href="#mbfd354863c" x="516.737818" y="143.315022" style="fill: #ff7f0e; stroke: #ff7f0e"/>
     <use xlink:href="#mbfd354863c" x="524.071882" y="141.743748" style="fill: #ff7f0e; stroke: #ff7f0e"/>
     <use xlink:href="#mbfd354863c" x="531.405945" y="140.420899" style="fill: #ff7f0e; stroke: #ff7f0e"/>
     <use xlink:href="#mbfd354863c" x="538.740009" y="139.309296" style="fill: #ff7f0e; stroke: #ff7f0e"/>
     <use xlink:href="#mbfd354863c" x="546.074072" y="138.376931" style="fill: #ff7f0e; stroke: #ff7f0e"/>
     <use xlink:href="#mbfd354863c" x="553.408136" y="137.596362" style="fill: #ff7f0e; stroke: #ff7f0e"/>
     <use xlink:href="#mbfd354863c" x="560.742199" y="136.944112" style="fill: #ff7f0e; stroke: #ff7f0e"/>
     <use xlink:href="#mbfd354863c" x="568.076263" y="136.400121" style="fill: #ff7f0e; stroke: #ff7f0e"/>
     <use xlink:href="#mbfd354863c" x="575.410326" y="135.947288" style="fill: #ff7f0e; stroke: #ff7f0e"/>
     <use xlink:href="#mbfd354863c" x="582.74439" y="135.571038" style="fill: #ff7f0e; stroke: #ff7f0e"/>
     <use xlink:href="#mbfd354863c" x="590.078453" y="135.259035" style="fill: #ff7f0e; stroke: #ff7f0e"/>
     <use xlink:href="#mbfd354863c" x="597.412517" y="135.000788" style="fill: #ff7f0e; stroke: #ff7f0e"/>
     <use xlink:href="#mbfd354863c" x="604.74658" y="134.787437" style="fill: #ff7f0e; stroke: #ff7f0e"/>
     <use xlink:href="#mbfd354863c" x="612.080644" y="134.611508" style="fill: #ff7f0e; stroke: #ff7f0e"/>
     <use xlink:href="#mbfd354863c" x="619.414708" y="134.466709" style="fill: #ff7f0e; stroke: #ff7f0e"/>
     <use xlink:href="#mbfd354863c" x="626.748771" y="134.347726" style="fill: #ff7f0e; stroke: #ff7f0e"/>
     <use xlink:href="#mbfd354863c" x="634.082835" y="134.250142" style="fill: #ff7f0e; stroke: #ff7f0e"/>
     <use xlink:href="#mbfd354863c" x="641.416898" y="134.170237" style="fill: #ff7f0e; stroke: #ff7f0e"/>
     <use xlink:href="#mbfd354863c" x="648.750962" y="134.104925" style="fill: #ff7f0e; stroke: #ff7f0e"/>
     <use xlink:href="#mbfd354863c" x="656.085025" y="134.051609" style="fill: #ff7f0e; stroke: #ff7f0e"/>
     <use xlink:href="#mbfd354863c" x="663.419089" y="134.008161" style="fill: #ff7f0e; stroke: #ff7f0e"/>
     <use xlink:href="#mbfd354863c" x="670.753152" y="133.972808" style="fill: #ff7f0e; stroke: #ff7f0e"/>
     <use xlink:href="#mbfd354863c" x="678.087216" y="133.944078" style="fill: #ff7f0e; stroke: #ff7f0e"/>
     <use xlink:href="#mbfd354863c" x="685.421279" y="133.92077" style="fill: #ff7f0e; stroke: #ff7f0e"/>
     <use xlink:href="#mbfd354863c" x="692.755343" y="133.901871" style="fill: #ff7f0e; stroke: #ff7f0e"/>
     <use xlink:href="#mbfd354863c" x="700.089406" y="133.886578" style="fill: #ff7f0e; stroke: #ff7f0e"/>
     <use xlink:href="#mbfd354863c" x="707.42347" y="133.874207" style="fill: #ff7f0e; stroke: #ff7f0e"/>
     <use xlink:href="#mbfd354863c" x="714.757533" y="133.864217" style="fill: #ff7f0e; stroke: #ff7f0e"/>
     <use xlink:href="#mbfd354863c" x="722.091597" y="133.856151" style="fill: #ff7f0e; stroke: #ff7f0e"/>
     <use xlink:href="#mbfd354863c" x="729.42566" y="133.849653" style="fill: #ff7f0e; stroke: #ff7f0e"/>
     <use xlink:href="#mbfd354863c" x="736.759724" y="133.844418" style="fill: #ff7f0e; stroke: #ff7f0e"/>
     <use xlink:href="#mbfd354863c" x="744.093787" y="133.840206" style="fill: #ff7f0e; stroke: #ff7f0e"/>
     <use xlink:href="#mbfd354863c" x="751.427851" y="133.836826" style="fill: #ff7f0e; stroke: #ff7f0e"/>
     <use xlink:href="#mbfd354863c" x="758.761915" y="133.834096" style="fill: #ff7f0e; stroke: #ff7f0e"/>
     <use xlink:href="#mbfd354863c" x="766.095978" y="133.83191" style="fill: #ff7f0e; stroke: #ff7f0e"/>
     <use xlink:href="#mbfd354863c" x="773.430042" y="133.830157" style="fill: #ff7f0e; stroke: #ff7f0e"/>
     <use xlink:href="#mbfd354863c" x="780.764105" y="133.82875" style="fill: #ff7f0e; stroke: #ff7f0e"/>
    </g>
   </g>
   <g id="patch_7">
    <path d="M 141.600469 768.86875 
L 141.600469 103.58875 
" style="fill: none; stroke: #000000; stroke-width: 0.8; stroke-linejoin: miter; stroke-linecap: square"/>
   </g>
   <g id="patch_8">
    <path d="M 811.200469 768.86875 
L 811.200469 103.58875 
" style="fill: none; stroke: #000000; stroke-width: 0.8; stroke-linejoin: miter; stroke-linecap: square"/>
   </g>
   <g id="patch_9">
    <path d="M 141.600469 768.86875 
L 811.200469 768.86875 
" style="fill: none; stroke: #000000; stroke-width: 0.8; stroke-linejoin: miter; stroke-linecap: square"/>
   </g>
   <g id="patch_10">
    <path d="M 141.600469 103.58875 
L 811.200469 103.58875 
" style="fill: none; stroke: #000000; stroke-width: 0.8; stroke-linejoin: miter; stroke-linecap: square"/>
   </g>
  </g>
  <g id="legend_1">
   <g id="patch_11">
    <path d="M 743.811406 867.570625 
L 884.192656 867.570625 
Q 888.192656 867.570625 888.192656 863.570625 
L 888.192656 806.858125 
Q 888.192656 802.858125 884.192656 802.858125 
L 743.811406 802.858125 
Q 739.811406 802.858125 739.811406 806.858125 
L 739.811406 863.570625 
Q 739.811406 867.570625 743.811406 867.570625 
z
" style="fill: #ffffff; opacity: 0.8; stroke: #cccccc; stroke-linejoin: miter"/>
   </g>
   <g id="line2d_29">
    <path d="M 747.811406 819.055 
L 767.811406 819.055 
L 787.811406 819.055 
" style="fill: none; stroke-dasharray: 5.55,2.4; stroke-dashoffset: 0; stroke: #1f77b4; stroke-width: 1.5"/>
    <g>
     <use xlink:href="#mab1a5331dc" x="767.811406" y="819.055" style="fill: #1f77b4; stroke: #1f77b4"/>
    </g>
   </g>
   <g id="text_21">
    <!-- Energy  -->
    <g transform="translate(803.811406 826.055) scale(0.2 -0.2)">
     <use xlink:href="#DejaVuSans-45"/>
     <use xlink:href="#DejaVuSans-6e" x="63.183594"/>
     <use xlink:href="#DejaVuSans-65" x="126.5625"/>
     <use xlink:href="#DejaVuSans-72" x="188.085938"/>
     <use xlink:href="#DejaVuSans-67" x="227.449219"/>
     <use xlink:href="#DejaVuSans-79" x="290.925781"/>
     <use xlink:href="#DejaVuSans-20" x="350.105469"/>
    </g>
   </g>
   <g id="line2d_30">
    <path d="M 747.811406 848.41125 
L 767.811406 848.41125 
L 787.811406 848.41125 
" style="fill: none; stroke-dasharray: 5.55,2.4; stroke-dashoffset: 0; stroke: #ff7f0e; stroke-width: 1.5"/>
    <g>
     <use xlink:href="#mbfd354863c" x="767.811406" y="848.41125" style="fill: #ff7f0e; stroke: #ff7f0e"/>
    </g>
   </g>
   <g id="text_22">
    <!-- EoF -->
    <g transform="translate(803.811406 855.41125) scale(0.2 -0.2)">
     <use xlink:href="#DejaVuSans-45"/>
     <use xlink:href="#DejaVuSans-6f" x="63.183594"/>
     <use xlink:href="#DejaVuSans-46" x="124.365234"/>
    </g>
   </g>
  </g>
 </g>
 <defs>
  <clipPath id="pff2e52d8cf">
   <rect x="141.600469" y="103.58875" width="669.6" height="665.28"/>
  </clipPath>
 </defs>
</svg>
