<?xml version="1.0" encoding="utf-8" standalone="no"?>
<!DOCTYPE svg PUBLIC "-//W3C//DTD SVG 1.1//EN"
  "http://www.w3.org/Graphics/SVG/1.1/DTD/svg11.dtd">
<svg xmlns:xlink="http://www.w3.org/1999/xlink" width="930.005156pt" height="877.570625pt" viewBox="0 0 930.005156 877.570625" xmlns="http://www.w3.org/2000/svg" version="1.1">
 <metadata>
  <rdf:RDF xmlns:dc="http://purl.org/dc/elements/1.1/" xmlns:cc="http://creativecommons.org/ns#" xmlns:rdf="http://www.w3.org/1999/02/22-rdf-syntax-ns#">
   <cc:Work>
    <dc:type rdf:resource="http://purl.org/dc/dcmitype/StillImage"/>
    <dc:date>2024-09-26T12:58:38.150630</dc:date>
    <dc:format>image/svg+xml</dc:format>
    <dc:creator>
     <cc:Agent>
      <dc:title>Matplotlib v3.9.1, https://matplotlib.org/</dc:title>
     </cc:Agent>
    </dc:creator>
   </cc:Work>
  </rdf:RDF>
 </metadata>
 <defs>
  <style type="text/css">*{stroke-linejoin: round; stroke-linecap: butt}</style>
 </defs>
 <g id="figure_1">
  <g id="patch_1">
   <path d="M 0 877.570625 
L 930.005156 877.570625 
L 930.005156 0 
L 0 0 
z
" style="fill: #ffffff"/>
  </g>
  <g id="axes_1">
   <g id="patch_2">
    <path d="M 173.412969 768.86875 
L 843.012969 768.86875 
L 843.012969 103.58875 
L 173.412969 103.58875 
z
" style="fill: #ffffff"/>
   </g>
   <g id="matplotlib.axis_1">
    <g id="xtick_1">
     <g id="line2d_1">
      <path d="M 245.830524 768.86875 
L 245.830524 103.58875 
" clip-path="url(#p798c59fb8d)" style="fill: none; stroke: #b0b0b0; stroke-width: 0.8; stroke-linecap: square"/>
     </g>
     <g id="line2d_2">
      <defs>
       <path id="mf8131228f5" d="M 0 0 
L 0 3.5 
" style="stroke: #000000; stroke-width: 0.8"/>
      </defs>
      <g>
       <use xlink:href="#mf8131228f5" x="245.830524" y="768.86875" style="stroke: #000000; stroke-width: 0.8"/>
      </g>
     </g>
     <g id="text_1">
      <!-- 0.6 -->
      <g transform="translate(225.951617 794.864844) scale(0.25 -0.25)">
       <defs>
        <path id="DejaVuSans-30" d="M 2034 4250 
Q 1547 4250 1301 3770 
Q 1056 3291 1056 2328 
Q 1056 1369 1301 889 
Q 1547 409 2034 409 
Q 2525 409 2770 889 
Q 3016 1369 3016 2328 
Q 3016 3291 2770 3770 
Q 2525 4250 2034 4250 
z
M 2034 4750 
Q 2819 4750 3233 4129 
Q 3647 3509 3647 2328 
Q 3647 1150 3233 529 
Q 2819 -91 2034 -91 
Q 1250 -91 836 529 
Q 422 1150 422 2328 
Q 422 3509 836 4129 
Q 1250 4750 2034 4750 
z
" transform="scale(0.015625)"/>
        <path id="DejaVuSans-2e" d="M 684 794 
L 1344 794 
L 1344 0 
L 684 0 
L 684 794 
z
" transform="scale(0.015625)"/>
        <path id="DejaVuSans-36" d="M 2113 2584 
Q 1688 2584 1439 2293 
Q 1191 2003 1191 1497 
Q 1191 994 1439 701 
Q 1688 409 2113 409 
Q 2538 409 2786 701 
Q 3034 994 3034 1497 
Q 3034 2003 2786 2293 
Q 2538 2584 2113 2584 
z
M 3366 4563 
L 3366 3988 
Q 3128 4100 2886 4159 
Q 2644 4219 2406 4219 
Q 1781 4219 1451 3797 
Q 1122 3375 1075 2522 
Q 1259 2794 1537 2939 
Q 1816 3084 2150 3084 
Q 2853 3084 3261 2657 
Q 3669 2231 3669 1497 
Q 3669 778 3244 343 
Q 2819 -91 2113 -91 
Q 1303 -91 875 529 
Q 447 1150 447 2328 
Q 447 3434 972 4092 
Q 1497 4750 2381 4750 
Q 2619 4750 2861 4703 
Q 3103 4656 3366 4563 
z
" transform="scale(0.015625)"/>
       </defs>
       <use xlink:href="#DejaVuSans-30"/>
       <use xlink:href="#DejaVuSans-2e" x="63.623047"/>
       <use xlink:href="#DejaVuSans-36" x="95.410156"/>
      </g>
     </g>
    </g>
    <g id="xtick_2">
     <g id="line2d_3">
      <path d="M 329.792906 768.86875 
L 329.792906 103.58875 
" clip-path="url(#p798c59fb8d)" style="fill: none; stroke: #b0b0b0; stroke-width: 0.8; stroke-linecap: square"/>
     </g>
     <g id="line2d_4">
      <g>
       <use xlink:href="#mf8131228f5" x="329.792906" y="768.86875" style="stroke: #000000; stroke-width: 0.8"/>
      </g>
     </g>
     <g id="text_2">
      <!-- 0.8 -->
      <g transform="translate(309.914 794.864844) scale(0.25 -0.25)">
       <defs>
        <path id="DejaVuSans-38" d="M 2034 2216 
Q 1584 2216 1326 1975 
Q 1069 1734 1069 1313 
Q 1069 891 1326 650 
Q 1584 409 2034 409 
Q 2484 409 2743 651 
Q 3003 894 3003 1313 
Q 3003 1734 2745 1975 
Q 2488 2216 2034 2216 
z
M 1403 2484 
Q 997 2584 770 2862 
Q 544 3141 544 3541 
Q 544 4100 942 4425 
Q 1341 4750 2034 4750 
Q 2731 4750 3128 4425 
Q 3525 4100 3525 3541 
Q 3525 3141 3298 2862 
Q 3072 2584 2669 2484 
Q 3125 2378 3379 2068 
Q 3634 1759 3634 1313 
Q 3634 634 3220 271 
Q 2806 -91 2034 -91 
Q 1263 -91 848 271 
Q 434 634 434 1313 
Q 434 1759 690 2068 
Q 947 2378 1403 2484 
z
M 1172 3481 
Q 1172 3119 1398 2916 
Q 1625 2713 2034 2713 
Q 2441 2713 2670 2916 
Q 2900 3119 2900 3481 
Q 2900 3844 2670 4047 
Q 2441 4250 2034 4250 
Q 1625 4250 1398 4047 
Q 1172 3844 1172 3481 
z
" transform="scale(0.015625)"/>
       </defs>
       <use xlink:href="#DejaVuSans-30"/>
       <use xlink:href="#DejaVuSans-2e" x="63.623047"/>
       <use xlink:href="#DejaVuSans-38" x="95.410156"/>
      </g>
     </g>
    </g>
    <g id="xtick_3">
     <g id="line2d_5">
      <path d="M 413.755288 768.86875 
L 413.755288 103.58875 
" clip-path="url(#p798c59fb8d)" style="fill: none; stroke: #b0b0b0; stroke-width: 0.8; stroke-linecap: square"/>
     </g>
     <g id="line2d_6">
      <g>
       <use xlink:href="#mf8131228f5" x="413.755288" y="768.86875" style="stroke: #000000; stroke-width: 0.8"/>
      </g>
     </g>
     <g id="text_3">
      <!-- 1.0 -->
      <g transform="translate(393.876382 794.864844) scale(0.25 -0.25)">
       <defs>
        <path id="DejaVuSans-31" d="M 794 531 
L 1825 531 
L 1825 4091 
L 703 3866 
L 703 4441 
L 1819 4666 
L 2450 4666 
L 2450 531 
L 3481 531 
L 3481 0 
L 794 0 
L 794 531 
z
" transform="scale(0.015625)"/>
       </defs>
       <use xlink:href="#DejaVuSans-31"/>
       <use xlink:href="#DejaVuSans-2e" x="63.623047"/>
       <use xlink:href="#DejaVuSans-30" x="95.410156"/>
      </g>
     </g>
    </g>
    <g id="xtick_4">
     <g id="line2d_7">
      <path d="M 497.717671 768.86875 
L 497.717671 103.58875 
" clip-path="url(#p798c59fb8d)" style="fill: none; stroke: #b0b0b0; stroke-width: 0.8; stroke-linecap: square"/>
     </g>
     <g id="line2d_8">
      <g>
       <use xlink:href="#mf8131228f5" x="497.717671" y="768.86875" style="stroke: #000000; stroke-width: 0.8"/>
      </g>
     </g>
     <g id="text_4">
      <!-- 1.2 -->
      <g transform="translate(477.838765 794.864844) scale(0.25 -0.25)">
       <defs>
        <path id="DejaVuSans-32" d="M 1228 531 
L 3431 531 
L 3431 0 
L 469 0 
L 469 531 
Q 828 903 1448 1529 
Q 2069 2156 2228 2338 
Q 2531 2678 2651 2914 
Q 2772 3150 2772 3378 
Q 2772 3750 2511 3984 
Q 2250 4219 1831 4219 
Q 1534 4219 1204 4116 
Q 875 4013 500 3803 
L 500 4441 
Q 881 4594 1212 4672 
Q 1544 4750 1819 4750 
Q 2544 4750 2975 4387 
Q 3406 4025 3406 3419 
Q 3406 3131 3298 2873 
Q 3191 2616 2906 2266 
Q 2828 2175 2409 1742 
Q 1991 1309 1228 531 
z
" transform="scale(0.015625)"/>
       </defs>
       <use xlink:href="#DejaVuSans-31"/>
       <use xlink:href="#DejaVuSans-2e" x="63.623047"/>
       <use xlink:href="#DejaVuSans-32" x="95.410156"/>
      </g>
     </g>
    </g>
    <g id="xtick_5">
     <g id="line2d_9">
      <path d="M 581.680053 768.86875 
L 581.680053 103.58875 
" clip-path="url(#p798c59fb8d)" style="fill: none; stroke: #b0b0b0; stroke-width: 0.8; stroke-linecap: square"/>
     </g>
     <g id="line2d_10">
      <g>
       <use xlink:href="#mf8131228f5" x="581.680053" y="768.86875" style="stroke: #000000; stroke-width: 0.8"/>
      </g>
     </g>
     <g id="text_5">
      <!-- 1.4 -->
      <g transform="translate(561.801147 794.864844) scale(0.25 -0.25)">
       <defs>
        <path id="DejaVuSans-34" d="M 2419 4116 
L 825 1625 
L 2419 1625 
L 2419 4116 
z
M 2253 4666 
L 3047 4666 
L 3047 1625 
L 3713 1625 
L 3713 1100 
L 3047 1100 
L 3047 0 
L 2419 0 
L 2419 1100 
L 313 1100 
L 313 1709 
L 2253 4666 
z
" transform="scale(0.015625)"/>
       </defs>
       <use xlink:href="#DejaVuSans-31"/>
       <use xlink:href="#DejaVuSans-2e" x="63.623047"/>
       <use xlink:href="#DejaVuSans-34" x="95.410156"/>
      </g>
     </g>
    </g>
    <g id="xtick_6">
     <g id="line2d_11">
      <path d="M 665.642436 768.86875 
L 665.642436 103.58875 
" clip-path="url(#p798c59fb8d)" style="fill: none; stroke: #b0b0b0; stroke-width: 0.8; stroke-linecap: square"/>
     </g>
     <g id="line2d_12">
      <g>
       <use xlink:href="#mf8131228f5" x="665.642436" y="768.86875" style="stroke: #000000; stroke-width: 0.8"/>
      </g>
     </g>
     <g id="text_6">
      <!-- 1.6 -->
      <g transform="translate(645.76353 794.864844) scale(0.25 -0.25)">
       <use xlink:href="#DejaVuSans-31"/>
       <use xlink:href="#DejaVuSans-2e" x="63.623047"/>
       <use xlink:href="#DejaVuSans-36" x="95.410156"/>
      </g>
     </g>
    </g>
    <g id="xtick_7">
     <g id="line2d_13">
      <path d="M 749.604818 768.86875 
L 749.604818 103.58875 
" clip-path="url(#p798c59fb8d)" style="fill: none; stroke: #b0b0b0; stroke-width: 0.8; stroke-linecap: square"/>
     </g>
     <g id="line2d_14">
      <g>
       <use xlink:href="#mf8131228f5" x="749.604818" y="768.86875" style="stroke: #000000; stroke-width: 0.8"/>
      </g>
     </g>
     <g id="text_7">
      <!-- 1.8 -->
      <g transform="translate(729.725912 794.864844) scale(0.25 -0.25)">
       <use xlink:href="#DejaVuSans-31"/>
       <use xlink:href="#DejaVuSans-2e" x="63.623047"/>
       <use xlink:href="#DejaVuSans-38" x="95.410156"/>
      </g>
     </g>
    </g>
    <g id="xtick_8">
     <g id="line2d_15">
      <path d="M 833.567201 768.86875 
L 833.567201 103.58875 
" clip-path="url(#p798c59fb8d)" style="fill: none; stroke: #b0b0b0; stroke-width: 0.8; stroke-linecap: square"/>
     </g>
     <g id="line2d_16">
      <g>
       <use xlink:href="#mf8131228f5" x="833.567201" y="768.86875" style="stroke: #000000; stroke-width: 0.8"/>
      </g>
     </g>
     <g id="text_8">
      <!-- 2.0 -->
      <g transform="translate(813.688294 794.864844) scale(0.25 -0.25)">
       <use xlink:href="#DejaVuSans-32"/>
       <use xlink:href="#DejaVuSans-2e" x="63.623047"/>
       <use xlink:href="#DejaVuSans-30" x="95.410156"/>
      </g>
     </g>
    </g>
    <g id="text_9">
     <!--  -->
     <g transform="translate(508.212969 826.859375) scale(0.3 -0.3)"/>
     <!--  Intermolecular Distance ($\AA$)  -->
     <g transform="translate(291.912969 864.131563) scale(0.3 -0.3)">
      <defs>
       <path id="DejaVuSans-20" transform="scale(0.015625)"/>
       <path id="DejaVuSans-49" d="M 628 4666 
L 1259 4666 
L 1259 0 
L 628 0 
L 628 4666 
z
" transform="scale(0.015625)"/>
       <path id="DejaVuSans-6e" d="M 3513 2113 
L 3513 0 
L 2938 0 
L 2938 2094 
Q 2938 2591 2744 2837 
Q 2550 3084 2163 3084 
Q 1697 3084 1428 2787 
Q 1159 2491 1159 1978 
L 1159 0 
L 581 0 
L 581 3500 
L 1159 3500 
L 1159 2956 
Q 1366 3272 1645 3428 
Q 1925 3584 2291 3584 
Q 2894 3584 3203 3211 
Q 3513 2838 3513 2113 
z
" transform="scale(0.015625)"/>
       <path id="DejaVuSans-74" d="M 1172 4494 
L 1172 3500 
L 2356 3500 
L 2356 3053 
L 1172 3053 
L 1172 1153 
Q 1172 725 1289 603 
Q 1406 481 1766 481 
L 2356 481 
L 2356 0 
L 1766 0 
Q 1100 0 847 248 
Q 594 497 594 1153 
L 594 3053 
L 172 3053 
L 172 3500 
L 594 3500 
L 594 4494 
L 1172 4494 
z
" transform="scale(0.015625)"/>
       <path id="DejaVuSans-65" d="M 3597 1894 
L 3597 1613 
L 953 1613 
Q 991 1019 1311 708 
Q 1631 397 2203 397 
Q 2534 397 2845 478 
Q 3156 559 3463 722 
L 3463 178 
Q 3153 47 2828 -22 
Q 2503 -91 2169 -91 
Q 1331 -91 842 396 
Q 353 884 353 1716 
Q 353 2575 817 3079 
Q 1281 3584 2069 3584 
Q 2775 3584 3186 3129 
Q 3597 2675 3597 1894 
z
M 3022 2063 
Q 3016 2534 2758 2815 
Q 2500 3097 2075 3097 
Q 1594 3097 1305 2825 
Q 1016 2553 972 2059 
L 3022 2063 
z
" transform="scale(0.015625)"/>
       <path id="DejaVuSans-72" d="M 2631 2963 
Q 2534 3019 2420 3045 
Q 2306 3072 2169 3072 
Q 1681 3072 1420 2755 
Q 1159 2438 1159 1844 
L 1159 0 
L 581 0 
L 581 3500 
L 1159 3500 
L 1159 2956 
Q 1341 3275 1631 3429 
Q 1922 3584 2338 3584 
Q 2397 3584 2469 3576 
Q 2541 3569 2628 3553 
L 2631 2963 
z
" transform="scale(0.015625)"/>
       <path id="DejaVuSans-6d" d="M 3328 2828 
Q 3544 3216 3844 3400 
Q 4144 3584 4550 3584 
Q 5097 3584 5394 3201 
Q 5691 2819 5691 2113 
L 5691 0 
L 5113 0 
L 5113 2094 
Q 5113 2597 4934 2840 
Q 4756 3084 4391 3084 
Q 3944 3084 3684 2787 
Q 3425 2491 3425 1978 
L 3425 0 
L 2847 0 
L 2847 2094 
Q 2847 2600 2669 2842 
Q 2491 3084 2119 3084 
Q 1678 3084 1418 2786 
Q 1159 2488 1159 1978 
L 1159 0 
L 581 0 
L 581 3500 
L 1159 3500 
L 1159 2956 
Q 1356 3278 1631 3431 
Q 1906 3584 2284 3584 
Q 2666 3584 2933 3390 
Q 3200 3197 3328 2828 
z
" transform="scale(0.015625)"/>
       <path id="DejaVuSans-6f" d="M 1959 3097 
Q 1497 3097 1228 2736 
Q 959 2375 959 1747 
Q 959 1119 1226 758 
Q 1494 397 1959 397 
Q 2419 397 2687 759 
Q 2956 1122 2956 1747 
Q 2956 2369 2687 2733 
Q 2419 3097 1959 3097 
z
M 1959 3584 
Q 2709 3584 3137 3096 
Q 3566 2609 3566 1747 
Q 3566 888 3137 398 
Q 2709 -91 1959 -91 
Q 1206 -91 779 398 
Q 353 888 353 1747 
Q 353 2609 779 3096 
Q 1206 3584 1959 3584 
z
" transform="scale(0.015625)"/>
       <path id="DejaVuSans-6c" d="M 603 4863 
L 1178 4863 
L 1178 0 
L 603 0 
L 603 4863 
z
" transform="scale(0.015625)"/>
       <path id="DejaVuSans-63" d="M 3122 3366 
L 3122 2828 
Q 2878 2963 2633 3030 
Q 2388 3097 2138 3097 
Q 1578 3097 1268 2742 
Q 959 2388 959 1747 
Q 959 1106 1268 751 
Q 1578 397 2138 397 
Q 2388 397 2633 464 
Q 2878 531 3122 666 
L 3122 134 
Q 2881 22 2623 -34 
Q 2366 -91 2075 -91 
Q 1284 -91 818 406 
Q 353 903 353 1747 
Q 353 2603 823 3093 
Q 1294 3584 2113 3584 
Q 2378 3584 2631 3529 
Q 2884 3475 3122 3366 
z
" transform="scale(0.015625)"/>
       <path id="DejaVuSans-75" d="M 544 1381 
L 544 3500 
L 1119 3500 
L 1119 1403 
Q 1119 906 1312 657 
Q 1506 409 1894 409 
Q 2359 409 2629 706 
Q 2900 1003 2900 1516 
L 2900 3500 
L 3475 3500 
L 3475 0 
L 2900 0 
L 2900 538 
Q 2691 219 2414 64 
Q 2138 -91 1772 -91 
Q 1169 -91 856 284 
Q 544 659 544 1381 
z
M 1991 3584 
L 1991 3584 
z
" transform="scale(0.015625)"/>
       <path id="DejaVuSans-61" d="M 2194 1759 
Q 1497 1759 1228 1600 
Q 959 1441 959 1056 
Q 959 750 1161 570 
Q 1363 391 1709 391 
Q 2188 391 2477 730 
Q 2766 1069 2766 1631 
L 2766 1759 
L 2194 1759 
z
M 3341 1997 
L 3341 0 
L 2766 0 
L 2766 531 
Q 2569 213 2275 61 
Q 1981 -91 1556 -91 
Q 1019 -91 701 211 
Q 384 513 384 1019 
Q 384 1609 779 1909 
Q 1175 2209 1959 2209 
L 2766 2209 
L 2766 2266 
Q 2766 2663 2505 2880 
Q 2244 3097 1772 3097 
Q 1472 3097 1187 3025 
Q 903 2953 641 2809 
L 641 3341 
Q 956 3463 1253 3523 
Q 1550 3584 1831 3584 
Q 2591 3584 2966 3190 
Q 3341 2797 3341 1997 
z
" transform="scale(0.015625)"/>
       <path id="DejaVuSans-44" d="M 1259 4147 
L 1259 519 
L 2022 519 
Q 2988 519 3436 956 
Q 3884 1394 3884 2338 
Q 3884 3275 3436 3711 
Q 2988 4147 2022 4147 
L 1259 4147 
z
M 628 4666 
L 1925 4666 
Q 3281 4666 3915 4102 
Q 4550 3538 4550 2338 
Q 4550 1131 3912 565 
Q 3275 0 1925 0 
L 628 0 
L 628 4666 
z
" transform="scale(0.015625)"/>
       <path id="DejaVuSans-69" d="M 603 3500 
L 1178 3500 
L 1178 0 
L 603 0 
L 603 3500 
z
M 603 4863 
L 1178 4863 
L 1178 4134 
L 603 4134 
L 603 4863 
z
" transform="scale(0.015625)"/>
       <path id="DejaVuSans-73" d="M 2834 3397 
L 2834 2853 
Q 2591 2978 2328 3040 
Q 2066 3103 1784 3103 
Q 1356 3103 1142 2972 
Q 928 2841 928 2578 
Q 928 2378 1081 2264 
Q 1234 2150 1697 2047 
L 1894 2003 
Q 2506 1872 2764 1633 
Q 3022 1394 3022 966 
Q 3022 478 2636 193 
Q 2250 -91 1575 -91 
Q 1294 -91 989 -36 
Q 684 19 347 128 
L 347 722 
Q 666 556 975 473 
Q 1284 391 1588 391 
Q 1994 391 2212 530 
Q 2431 669 2431 922 
Q 2431 1156 2273 1281 
Q 2116 1406 1581 1522 
L 1381 1569 
Q 847 1681 609 1914 
Q 372 2147 372 2553 
Q 372 3047 722 3315 
Q 1072 3584 1716 3584 
Q 2034 3584 2315 3537 
Q 2597 3491 2834 3397 
z
" transform="scale(0.015625)"/>
       <path id="DejaVuSans-28" d="M 1984 4856 
Q 1566 4138 1362 3434 
Q 1159 2731 1159 2009 
Q 1159 1288 1364 580 
Q 1569 -128 1984 -844 
L 1484 -844 
Q 1016 -109 783 600 
Q 550 1309 550 2009 
Q 550 2706 781 3412 
Q 1013 4119 1484 4856 
L 1984 4856 
z
" transform="scale(0.015625)"/>
       <path id="DejaVuSans-Oblique-c5" d="M 3188 5081 
Q 3188 5278 3048 5417 
Q 2909 5556 2713 5556 
Q 2513 5556 2377 5420 
Q 2241 5284 2241 5081 
Q 2241 4884 2377 4746 
Q 2513 4609 2713 4609 
Q 2909 4609 3048 4746 
Q 3188 4884 3188 5081 
z
M 2203 4397 
Q 2034 4513 1945 4689 
Q 1856 4866 1856 5081 
Q 1856 5438 2106 5689 
Q 2356 5941 2713 5941 
Q 3069 5941 3320 5689 
Q 3572 5438 3572 5081 
Q 3572 4834 3458 4643 
Q 3344 4453 3128 4341 
L 3938 0 
L 3278 0 
L 3084 1197 
L 984 1197 
L 325 0 
L -341 0 
L 2203 4397 
z
M 2584 4044 
L 1275 1722 
L 2988 1722 
L 2584 4044 
z
" transform="scale(0.015625)"/>
       <path id="DejaVuSans-29" d="M 513 4856 
L 1013 4856 
Q 1481 4119 1714 3412 
Q 1947 2706 1947 2009 
Q 1947 1309 1714 600 
Q 1481 -109 1013 -844 
L 513 -844 
Q 928 -128 1133 580 
Q 1338 1288 1338 2009 
Q 1338 2731 1133 3434 
Q 928 4138 513 4856 
z
" transform="scale(0.015625)"/>
      </defs>
      <use xlink:href="#DejaVuSans-20" transform="translate(0 0.171875)"/>
      <use xlink:href="#DejaVuSans-49" transform="translate(31.787109 0.171875)"/>
      <use xlink:href="#DejaVuSans-6e" transform="translate(61.279297 0.171875)"/>
      <use xlink:href="#DejaVuSans-74" transform="translate(124.658203 0.171875)"/>
      <use xlink:href="#DejaVuSans-65" transform="translate(163.867188 0.171875)"/>
      <use xlink:href="#DejaVuSans-72" transform="translate(225.390625 0.171875)"/>
      <use xlink:href="#DejaVuSans-6d" transform="translate(266.503906 0.171875)"/>
      <use xlink:href="#DejaVuSans-6f" transform="translate(363.916016 0.171875)"/>
      <use xlink:href="#DejaVuSans-6c" transform="translate(425.097656 0.171875)"/>
      <use xlink:href="#DejaVuSans-65" transform="translate(452.880859 0.171875)"/>
      <use xlink:href="#DejaVuSans-63" transform="translate(514.404297 0.171875)"/>
      <use xlink:href="#DejaVuSans-75" transform="translate(569.384766 0.171875)"/>
      <use xlink:href="#DejaVuSans-6c" transform="translate(632.763672 0.171875)"/>
      <use xlink:href="#DejaVuSans-61" transform="translate(660.546875 0.171875)"/>
      <use xlink:href="#DejaVuSans-72" transform="translate(721.826172 0.171875)"/>
      <use xlink:href="#DejaVuSans-20" transform="translate(762.939453 0.171875)"/>
      <use xlink:href="#DejaVuSans-44" transform="translate(794.726562 0.171875)"/>
      <use xlink:href="#DejaVuSans-69" transform="translate(871.728516 0.171875)"/>
      <use xlink:href="#DejaVuSans-73" transform="translate(899.511719 0.171875)"/>
      <use xlink:href="#DejaVuSans-74" transform="translate(951.611328 0.171875)"/>
      <use xlink:href="#DejaVuSans-61" transform="translate(990.820312 0.171875)"/>
      <use xlink:href="#DejaVuSans-6e" transform="translate(1052.099609 0.171875)"/>
      <use xlink:href="#DejaVuSans-63" transform="translate(1115.478516 0.171875)"/>
      <use xlink:href="#DejaVuSans-65" transform="translate(1170.458984 0.171875)"/>
      <use xlink:href="#DejaVuSans-20" transform="translate(1231.982422 0.171875)"/>
      <use xlink:href="#DejaVuSans-28" transform="translate(1263.769531 0.171875)"/>
      <use xlink:href="#DejaVuSans-Oblique-c5" transform="translate(1302.783203 0.171875)"/>
      <use xlink:href="#DejaVuSans-29" transform="translate(1371.191406 0.171875)"/>
      <use xlink:href="#DejaVuSans-20" transform="translate(1410.205078 0.171875)"/>
     </g>
    </g>
   </g>
   <g id="matplotlib.axis_2">
    <g id="ytick_1">
     <g id="line2d_17">
      <path d="M 173.412969 721.411792 
L 843.012969 721.411792 
" clip-path="url(#p798c59fb8d)" style="fill: none; stroke: #b0b0b0; stroke-width: 0.8; stroke-linecap: square"/>
     </g>
     <g id="line2d_18">
      <defs>
       <path id="m3eeb74a358" d="M 0 0 
L -3.5 0 
" style="stroke: #000000; stroke-width: 0.8"/>
      </defs>
      <g>
       <use xlink:href="#m3eeb74a358" x="173.412969" y="721.411792" style="stroke: #000000; stroke-width: 0.8"/>
      </g>
     </g>
     <g id="text_10">
      <!-- −100.0 -->
      <g transform="translate(73.893438 730.909839) scale(0.25 -0.25)">
       <defs>
        <path id="DejaVuSans-2212" d="M 678 2272 
L 4684 2272 
L 4684 1741 
L 678 1741 
L 678 2272 
z
" transform="scale(0.015625)"/>
       </defs>
       <use xlink:href="#DejaVuSans-2212"/>
       <use xlink:href="#DejaVuSans-31" x="83.789062"/>
       <use xlink:href="#DejaVuSans-30" x="147.412109"/>
       <use xlink:href="#DejaVuSans-30" x="211.035156"/>
       <use xlink:href="#DejaVuSans-2e" x="274.658203"/>
       <use xlink:href="#DejaVuSans-30" x="306.445312"/>
      </g>
     </g>
    </g>
    <g id="ytick_2">
     <g id="line2d_19">
      <path d="M 173.412969 634.335496 
L 843.012969 634.335496 
" clip-path="url(#p798c59fb8d)" style="fill: none; stroke: #b0b0b0; stroke-width: 0.8; stroke-linecap: square"/>
     </g>
     <g id="line2d_20">
      <g>
       <use xlink:href="#m3eeb74a358" x="173.412969" y="634.335496" style="stroke: #000000; stroke-width: 0.8"/>
      </g>
     </g>
     <g id="text_11">
      <!-- −99.9 -->
      <g transform="translate(89.799688 643.833543) scale(0.25 -0.25)">
       <defs>
        <path id="DejaVuSans-39" d="M 703 97 
L 703 672 
Q 941 559 1184 500 
Q 1428 441 1663 441 
Q 2288 441 2617 861 
Q 2947 1281 2994 2138 
Q 2813 1869 2534 1725 
Q 2256 1581 1919 1581 
Q 1219 1581 811 2004 
Q 403 2428 403 3163 
Q 403 3881 828 4315 
Q 1253 4750 1959 4750 
Q 2769 4750 3195 4129 
Q 3622 3509 3622 2328 
Q 3622 1225 3098 567 
Q 2575 -91 1691 -91 
Q 1453 -91 1209 -44 
Q 966 3 703 97 
z
M 1959 2075 
Q 2384 2075 2632 2365 
Q 2881 2656 2881 3163 
Q 2881 3666 2632 3958 
Q 2384 4250 1959 4250 
Q 1534 4250 1286 3958 
Q 1038 3666 1038 3163 
Q 1038 2656 1286 2365 
Q 1534 2075 1959 2075 
z
" transform="scale(0.015625)"/>
       </defs>
       <use xlink:href="#DejaVuSans-2212"/>
       <use xlink:href="#DejaVuSans-39" x="83.789062"/>
       <use xlink:href="#DejaVuSans-39" x="147.412109"/>
       <use xlink:href="#DejaVuSans-2e" x="211.035156"/>
       <use xlink:href="#DejaVuSans-39" x="242.822266"/>
      </g>
     </g>
    </g>
    <g id="ytick_3">
     <g id="line2d_21">
      <path d="M 173.412969 547.259201 
L 843.012969 547.259201 
" clip-path="url(#p798c59fb8d)" style="fill: none; stroke: #b0b0b0; stroke-width: 0.8; stroke-linecap: square"/>
     </g>
     <g id="line2d_22">
      <g>
       <use xlink:href="#m3eeb74a358" x="173.412969" y="547.259201" style="stroke: #000000; stroke-width: 0.8"/>
      </g>
     </g>
     <g id="text_12">
      <!-- −99.8 -->
      <g transform="translate(89.799688 556.757248) scale(0.25 -0.25)">
       <use xlink:href="#DejaVuSans-2212"/>
       <use xlink:href="#DejaVuSans-39" x="83.789062"/>
       <use xlink:href="#DejaVuSans-39" x="147.412109"/>
       <use xlink:href="#DejaVuSans-2e" x="211.035156"/>
       <use xlink:href="#DejaVuSans-38" x="242.822266"/>
      </g>
     </g>
    </g>
    <g id="ytick_4">
     <g id="line2d_23">
      <path d="M 173.412969 460.182905 
L 843.012969 460.182905 
" clip-path="url(#p798c59fb8d)" style="fill: none; stroke: #b0b0b0; stroke-width: 0.8; stroke-linecap: square"/>
     </g>
     <g id="line2d_24">
      <g>
       <use xlink:href="#m3eeb74a358" x="173.412969" y="460.182905" style="stroke: #000000; stroke-width: 0.8"/>
      </g>
     </g>
     <g id="text_13">
      <!-- −99.7 -->
      <g transform="translate(89.799688 469.680952) scale(0.25 -0.25)">
       <defs>
        <path id="DejaVuSans-37" d="M 525 4666 
L 3525 4666 
L 3525 4397 
L 1831 0 
L 1172 0 
L 2766 4134 
L 525 4134 
L 525 4666 
z
" transform="scale(0.015625)"/>
       </defs>
       <use xlink:href="#DejaVuSans-2212"/>
       <use xlink:href="#DejaVuSans-39" x="83.789062"/>
       <use xlink:href="#DejaVuSans-39" x="147.412109"/>
       <use xlink:href="#DejaVuSans-2e" x="211.035156"/>
       <use xlink:href="#DejaVuSans-37" x="242.822266"/>
      </g>
     </g>
    </g>
    <g id="ytick_5">
     <g id="line2d_25">
      <path d="M 173.412969 373.106609 
L 843.012969 373.106609 
" clip-path="url(#p798c59fb8d)" style="fill: none; stroke: #b0b0b0; stroke-width: 0.8; stroke-linecap: square"/>
     </g>
     <g id="line2d_26">
      <g>
       <use xlink:href="#m3eeb74a358" x="173.412969" y="373.106609" style="stroke: #000000; stroke-width: 0.8"/>
      </g>
     </g>
     <g id="text_14">
      <!-- −99.6 -->
      <g transform="translate(89.799688 382.604656) scale(0.25 -0.25)">
       <use xlink:href="#DejaVuSans-2212"/>
       <use xlink:href="#DejaVuSans-39" x="83.789062"/>
       <use xlink:href="#DejaVuSans-39" x="147.412109"/>
       <use xlink:href="#DejaVuSans-2e" x="211.035156"/>
       <use xlink:href="#DejaVuSans-36" x="242.822266"/>
      </g>
     </g>
    </g>
    <g id="ytick_6">
     <g id="line2d_27">
      <path d="M 173.412969 286.030313 
L 843.012969 286.030313 
" clip-path="url(#p798c59fb8d)" style="fill: none; stroke: #b0b0b0; stroke-width: 0.8; stroke-linecap: square"/>
     </g>
     <g id="line2d_28">
      <g>
       <use xlink:href="#m3eeb74a358" x="173.412969" y="286.030313" style="stroke: #000000; stroke-width: 0.8"/>
      </g>
     </g>
     <g id="text_15">
      <!-- −99.5 -->
      <g transform="translate(89.799688 295.52836) scale(0.25 -0.25)">
       <defs>
        <path id="DejaVuSans-35" d="M 691 4666 
L 3169 4666 
L 3169 4134 
L 1269 4134 
L 1269 2991 
Q 1406 3038 1543 3061 
Q 1681 3084 1819 3084 
Q 2600 3084 3056 2656 
Q 3513 2228 3513 1497 
Q 3513 744 3044 326 
Q 2575 -91 1722 -91 
Q 1428 -91 1123 -41 
Q 819 9 494 109 
L 494 744 
Q 775 591 1075 516 
Q 1375 441 1709 441 
Q 2250 441 2565 725 
Q 2881 1009 2881 1497 
Q 2881 1984 2565 2268 
Q 2250 2553 1709 2553 
Q 1456 2553 1204 2497 
Q 953 2441 691 2322 
L 691 4666 
z
" transform="scale(0.015625)"/>
       </defs>
       <use xlink:href="#DejaVuSans-2212"/>
       <use xlink:href="#DejaVuSans-39" x="83.789062"/>
       <use xlink:href="#DejaVuSans-39" x="147.412109"/>
       <use xlink:href="#DejaVuSans-2e" x="211.035156"/>
       <use xlink:href="#DejaVuSans-35" x="242.822266"/>
      </g>
     </g>
    </g>
    <g id="ytick_7">
     <g id="line2d_29">
      <path d="M 173.412969 198.954017 
L 843.012969 198.954017 
" clip-path="url(#p798c59fb8d)" style="fill: none; stroke: #b0b0b0; stroke-width: 0.8; stroke-linecap: square"/>
     </g>
     <g id="line2d_30">
      <g>
       <use xlink:href="#m3eeb74a358" x="173.412969" y="198.954017" style="stroke: #000000; stroke-width: 0.8"/>
      </g>
     </g>
     <g id="text_16">
      <!-- −99.4 -->
      <g transform="translate(89.799688 208.452064) scale(0.25 -0.25)">
       <use xlink:href="#DejaVuSans-2212"/>
       <use xlink:href="#DejaVuSans-39" x="83.789062"/>
       <use xlink:href="#DejaVuSans-39" x="147.412109"/>
       <use xlink:href="#DejaVuSans-2e" x="211.035156"/>
       <use xlink:href="#DejaVuSans-34" x="242.822266"/>
      </g>
     </g>
    </g>
    <g id="ytick_8">
     <g id="line2d_31">
      <path d="M 173.412969 111.877722 
L 843.012969 111.877722 
" clip-path="url(#p798c59fb8d)" style="fill: none; stroke: #b0b0b0; stroke-width: 0.8; stroke-linecap: square"/>
     </g>
     <g id="line2d_32">
      <g>
       <use xlink:href="#m3eeb74a358" x="173.412969" y="111.877722" style="stroke: #000000; stroke-width: 0.8"/>
      </g>
     </g>
     <g id="text_17">
      <!-- −99.3 -->
      <g transform="translate(89.799688 121.375768) scale(0.25 -0.25)">
       <defs>
        <path id="DejaVuSans-33" d="M 2597 2516 
Q 3050 2419 3304 2112 
Q 3559 1806 3559 1356 
Q 3559 666 3084 287 
Q 2609 -91 1734 -91 
Q 1441 -91 1130 -33 
Q 819 25 488 141 
L 488 750 
Q 750 597 1062 519 
Q 1375 441 1716 441 
Q 2309 441 2620 675 
Q 2931 909 2931 1356 
Q 2931 1769 2642 2001 
Q 2353 2234 1838 2234 
L 1294 2234 
L 1294 2753 
L 1863 2753 
Q 2328 2753 2575 2939 
Q 2822 3125 2822 3475 
Q 2822 3834 2567 4026 
Q 2313 4219 1838 4219 
Q 1578 4219 1281 4162 
Q 984 4106 628 3988 
L 628 4550 
Q 988 4650 1302 4700 
Q 1616 4750 1894 4750 
Q 2613 4750 3031 4423 
Q 3450 4097 3450 3541 
Q 3450 3153 3228 2886 
Q 3006 2619 2597 2516 
z
" transform="scale(0.015625)"/>
       </defs>
       <use xlink:href="#DejaVuSans-2212"/>
       <use xlink:href="#DejaVuSans-39" x="83.789062"/>
       <use xlink:href="#DejaVuSans-39" x="147.412109"/>
       <use xlink:href="#DejaVuSans-2e" x="211.035156"/>
       <use xlink:href="#DejaVuSans-33" x="242.822266"/>
      </g>
     </g>
    </g>
    <g id="text_18">
     <!-- Energy ($E_H$)  -->
     <g transform="translate(30 528.17875) rotate(-90) scale(0.3 -0.3)">
      <defs>
       <path id="DejaVuSans-45" d="M 628 4666 
L 3578 4666 
L 3578 4134 
L 1259 4134 
L 1259 2753 
L 3481 2753 
L 3481 2222 
L 1259 2222 
L 1259 531 
L 3634 531 
L 3634 0 
L 628 0 
L 628 4666 
z
" transform="scale(0.015625)"/>
       <path id="DejaVuSans-67" d="M 2906 1791 
Q 2906 2416 2648 2759 
Q 2391 3103 1925 3103 
Q 1463 3103 1205 2759 
Q 947 2416 947 1791 
Q 947 1169 1205 825 
Q 1463 481 1925 481 
Q 2391 481 2648 825 
Q 2906 1169 2906 1791 
z
M 3481 434 
Q 3481 -459 3084 -895 
Q 2688 -1331 1869 -1331 
Q 1566 -1331 1297 -1286 
Q 1028 -1241 775 -1147 
L 775 -588 
Q 1028 -725 1275 -790 
Q 1522 -856 1778 -856 
Q 2344 -856 2625 -561 
Q 2906 -266 2906 331 
L 2906 616 
Q 2728 306 2450 153 
Q 2172 0 1784 0 
Q 1141 0 747 490 
Q 353 981 353 1791 
Q 353 2603 747 3093 
Q 1141 3584 1784 3584 
Q 2172 3584 2450 3431 
Q 2728 3278 2906 2969 
L 2906 3500 
L 3481 3500 
L 3481 434 
z
" transform="scale(0.015625)"/>
       <path id="DejaVuSans-79" d="M 2059 -325 
Q 1816 -950 1584 -1140 
Q 1353 -1331 966 -1331 
L 506 -1331 
L 506 -850 
L 844 -850 
Q 1081 -850 1212 -737 
Q 1344 -625 1503 -206 
L 1606 56 
L 191 3500 
L 800 3500 
L 1894 763 
L 2988 3500 
L 3597 3500 
L 2059 -325 
z
" transform="scale(0.015625)"/>
       <path id="DejaVuSans-Oblique-45" d="M 1081 4666 
L 4031 4666 
L 3928 4134 
L 1606 4134 
L 1338 2753 
L 3566 2753 
L 3463 2222 
L 1234 2222 
L 909 531 
L 3284 531 
L 3181 0 
L 172 0 
L 1081 4666 
z
" transform="scale(0.015625)"/>
       <path id="DejaVuSans-Oblique-48" d="M 1081 4666 
L 1716 4666 
L 1344 2753 
L 3634 2753 
L 4006 4666 
L 4641 4666 
L 3731 0 
L 3097 0 
L 3531 2222 
L 1241 2222 
L 806 0 
L 172 0 
L 1081 4666 
z
" transform="scale(0.015625)"/>
      </defs>
      <use xlink:href="#DejaVuSans-45" transform="translate(0 0.125)"/>
      <use xlink:href="#DejaVuSans-6e" transform="translate(63.183594 0.125)"/>
      <use xlink:href="#DejaVuSans-65" transform="translate(126.5625 0.125)"/>
      <use xlink:href="#DejaVuSans-72" transform="translate(188.085938 0.125)"/>
      <use xlink:href="#DejaVuSans-67" transform="translate(229.199219 0.125)"/>
      <use xlink:href="#DejaVuSans-79" transform="translate(292.675781 0.125)"/>
      <use xlink:href="#DejaVuSans-20" transform="translate(351.855469 0.125)"/>
      <use xlink:href="#DejaVuSans-28" transform="translate(383.642578 0.125)"/>
      <use xlink:href="#DejaVuSans-Oblique-45" transform="translate(422.65625 0.125)"/>
      <use xlink:href="#DejaVuSans-Oblique-48" transform="translate(485.839844 -16.28125) scale(0.7)"/>
      <use xlink:href="#DejaVuSans-29" transform="translate(541.210938 0.125)"/>
      <use xlink:href="#DejaVuSans-20" transform="translate(580.224609 0.125)"/>
     </g>
     <!--  -->
     <g transform="translate(63.654375 436.22875) rotate(-90) scale(0.3 -0.3)"/>
    </g>
   </g>
   <g id="line2d_33">
    <path d="M 203.849332 133.82875 
L 224.839928 353.103467 
L 245.830524 499.963782 
L 266.821119 597.45118 
L 287.811715 660.890449 
L 308.80231 700.629504 
L 329.792906 723.772809 
L 350.783502 735.27465 
L 371.774097 738.62875 
L 392.764693 736.312643 
L 413.755288 730.0861 
L 434.745884 721.200003 
L 455.73648 710.545743 
L 476.727075 698.761822 
L 497.717671 686.30854 
L 518.708267 673.519247 
L 539.698862 660.635189 
L 560.689458 647.829483 
L 581.680053 658.265551 
L 602.670649 650.435768 
L 623.661245 643.226688 
L 644.65184 636.633196 
L 665.642436 630.639632 
L 686.633031 625.223592 
L 707.623627 620.358248 
L 728.614223 616.013885 
L 749.604818 612.158316 
L 770.595414 608.757788 
L 791.58601 605.777131 
L 812.576605 603.180215 
" clip-path="url(#p798c59fb8d)" style="fill: none; stroke-dasharray: 5.55,2.4; stroke-dashoffset: 0; stroke: #1f77b4; stroke-width: 1.5"/>
    <defs>
     <path id="ma8aa6d9b46" d="M -6 6 
L 6 -6 
M -6 -6 
L 6 6 
" style="stroke: #1f77b4"/>
    </defs>
    <g clip-path="url(#p798c59fb8d)">
     <use xlink:href="#ma8aa6d9b46" x="203.849332" y="133.82875" style="fill: #1f77b4; stroke: #1f77b4"/>
     <use xlink:href="#ma8aa6d9b46" x="224.839928" y="353.103467" style="fill: #1f77b4; stroke: #1f77b4"/>
     <use xlink:href="#ma8aa6d9b46" x="245.830524" y="499.963782" style="fill: #1f77b4; stroke: #1f77b4"/>
     <use xlink:href="#ma8aa6d9b46" x="266.821119" y="597.45118" style="fill: #1f77b4; stroke: #1f77b4"/>
     <use xlink:href="#ma8aa6d9b46" x="287.811715" y="660.890449" style="fill: #1f77b4; stroke: #1f77b4"/>
     <use xlink:href="#ma8aa6d9b46" x="308.80231" y="700.629504" style="fill: #1f77b4; stroke: #1f77b4"/>
     <use xlink:href="#ma8aa6d9b46" x="329.792906" y="723.772809" style="fill: #1f77b4; stroke: #1f77b4"/>
     <use xlink:href="#ma8aa6d9b46" x="350.783502" y="735.27465" style="fill: #1f77b4; stroke: #1f77b4"/>
     <use xlink:href="#ma8aa6d9b46" x="371.774097" y="738.62875" style="fill: #1f77b4; stroke: #1f77b4"/>
     <use xlink:href="#ma8aa6d9b46" x="392.764693" y="736.312643" style="fill: #1f77b4; stroke: #1f77b4"/>
     <use xlink:href="#ma8aa6d9b46" x="413.755288" y="730.0861" style="fill: #1f77b4; stroke: #1f77b4"/>
     <use xlink:href="#ma8aa6d9b46" x="434.745884" y="721.200003" style="fill: #1f77b4; stroke: #1f77b4"/>
     <use xlink:href="#ma8aa6d9b46" x="455.73648" y="710.545743" style="fill: #1f77b4; stroke: #1f77b4"/>
     <use xlink:href="#ma8aa6d9b46" x="476.727075" y="698.761822" style="fill: #1f77b4; stroke: #1f77b4"/>
     <use xlink:href="#ma8aa6d9b46" x="497.717671" y="686.30854" style="fill: #1f77b4; stroke: #1f77b4"/>
     <use xlink:href="#ma8aa6d9b46" x="518.708267" y="673.519247" style="fill: #1f77b4; stroke: #1f77b4"/>
     <use xlink:href="#ma8aa6d9b46" x="539.698862" y="660.635189" style="fill: #1f77b4; stroke: #1f77b4"/>
     <use xlink:href="#ma8aa6d9b46" x="560.689458" y="647.829483" style="fill: #1f77b4; stroke: #1f77b4"/>
     <use xlink:href="#ma8aa6d9b46" x="581.680053" y="658.265551" style="fill: #1f77b4; stroke: #1f77b4"/>
     <use xlink:href="#ma8aa6d9b46" x="602.670649" y="650.435768" style="fill: #1f77b4; stroke: #1f77b4"/>
     <use xlink:href="#ma8aa6d9b46" x="623.661245" y="643.226688" style="fill: #1f77b4; stroke: #1f77b4"/>
     <use xlink:href="#ma8aa6d9b46" x="644.65184" y="636.633196" style="fill: #1f77b4; stroke: #1f77b4"/>
     <use xlink:href="#ma8aa6d9b46" x="665.642436" y="630.639632" style="fill: #1f77b4; stroke: #1f77b4"/>
     <use xlink:href="#ma8aa6d9b46" x="686.633031" y="625.223592" style="fill: #1f77b4; stroke: #1f77b4"/>
     <use xlink:href="#ma8aa6d9b46" x="707.623627" y="620.358248" style="fill: #1f77b4; stroke: #1f77b4"/>
     <use xlink:href="#ma8aa6d9b46" x="728.614223" y="616.013885" style="fill: #1f77b4; stroke: #1f77b4"/>
     <use xlink:href="#ma8aa6d9b46" x="749.604818" y="612.158316" style="fill: #1f77b4; stroke: #1f77b4"/>
     <use xlink:href="#ma8aa6d9b46" x="770.595414" y="608.757788" style="fill: #1f77b4; stroke: #1f77b4"/>
     <use xlink:href="#ma8aa6d9b46" x="791.58601" y="605.777131" style="fill: #1f77b4; stroke: #1f77b4"/>
     <use xlink:href="#ma8aa6d9b46" x="812.576605" y="603.180215" style="fill: #1f77b4; stroke: #1f77b4"/>
    </g>
   </g>
   <g id="patch_3">
    <path d="M 173.412969 768.86875 
L 173.412969 103.58875 
" style="fill: none; stroke: #000000; stroke-width: 0.8; stroke-linejoin: miter; stroke-linecap: square"/>
   </g>
   <g id="patch_4">
    <path d="M 843.012969 768.86875 
L 843.012969 103.58875 
" style="fill: none; stroke: #000000; stroke-width: 0.8; stroke-linejoin: miter; stroke-linecap: square"/>
   </g>
   <g id="patch_5">
    <path d="M 173.412969 768.86875 
L 843.012969 768.86875 
" style="fill: none; stroke: #000000; stroke-width: 0.8; stroke-linejoin: miter; stroke-linecap: square"/>
   </g>
   <g id="patch_6">
    <path d="M 173.412969 103.58875 
L 843.012969 103.58875 
" style="fill: none; stroke: #000000; stroke-width: 0.8; stroke-linejoin: miter; stroke-linecap: square"/>
   </g>
   <g id="text_19">
    <!-- Energy and Entanglement of Formation -->
    <g transform="translate(212.534844 29.995312) scale(0.3 -0.3)">
     <defs>
      <path id="DejaVuSans-64" d="M 2906 2969 
L 2906 4863 
L 3481 4863 
L 3481 0 
L 2906 0 
L 2906 525 
Q 2725 213 2448 61 
Q 2172 -91 1784 -91 
Q 1150 -91 751 415 
Q 353 922 353 1747 
Q 353 2572 751 3078 
Q 1150 3584 1784 3584 
Q 2172 3584 2448 3432 
Q 2725 3281 2906 2969 
z
M 947 1747 
Q 947 1113 1208 752 
Q 1469 391 1925 391 
Q 2381 391 2643 752 
Q 2906 1113 2906 1747 
Q 2906 2381 2643 2742 
Q 2381 3103 1925 3103 
Q 1469 3103 1208 2742 
Q 947 2381 947 1747 
z
" transform="scale(0.015625)"/>
      <path id="DejaVuSans-66" d="M 2375 4863 
L 2375 4384 
L 1825 4384 
Q 1516 4384 1395 4259 
Q 1275 4134 1275 3809 
L 1275 3500 
L 2222 3500 
L 2222 3053 
L 1275 3053 
L 1275 0 
L 697 0 
L 697 3053 
L 147 3053 
L 147 3500 
L 697 3500 
L 697 3744 
Q 697 4328 969 4595 
Q 1241 4863 1831 4863 
L 2375 4863 
z
" transform="scale(0.015625)"/>
      <path id="DejaVuSans-46" d="M 628 4666 
L 3309 4666 
L 3309 4134 
L 1259 4134 
L 1259 2759 
L 3109 2759 
L 3109 2228 
L 1259 2228 
L 1259 0 
L 628 0 
L 628 4666 
z
" transform="scale(0.015625)"/>
     </defs>
     <use xlink:href="#DejaVuSans-45"/>
     <use xlink:href="#DejaVuSans-6e" x="63.183594"/>
     <use xlink:href="#DejaVuSans-65" x="126.5625"/>
     <use xlink:href="#DejaVuSans-72" x="188.085938"/>
     <use xlink:href="#DejaVuSans-67" x="227.449219"/>
     <use xlink:href="#DejaVuSans-79" x="290.925781"/>
     <use xlink:href="#DejaVuSans-20" x="350.105469"/>
     <use xlink:href="#DejaVuSans-61" x="381.892578"/>
     <use xlink:href="#DejaVuSans-6e" x="443.171875"/>
     <use xlink:href="#DejaVuSans-64" x="506.550781"/>
     <use xlink:href="#DejaVuSans-20" x="570.027344"/>
     <use xlink:href="#DejaVuSans-45" x="601.814453"/>
     <use xlink:href="#DejaVuSans-6e" x="664.998047"/>
     <use xlink:href="#DejaVuSans-74" x="728.376953"/>
     <use xlink:href="#DejaVuSans-61" x="767.585938"/>
     <use xlink:href="#DejaVuSans-6e" x="828.865234"/>
     <use xlink:href="#DejaVuSans-67" x="892.244141"/>
     <use xlink:href="#DejaVuSans-6c" x="955.720703"/>
     <use xlink:href="#DejaVuSans-65" x="983.503906"/>
     <use xlink:href="#DejaVuSans-6d" x="1045.027344"/>
     <use xlink:href="#DejaVuSans-65" x="1142.439453"/>
     <use xlink:href="#DejaVuSans-6e" x="1203.962891"/>
     <use xlink:href="#DejaVuSans-74" x="1267.341797"/>
     <use xlink:href="#DejaVuSans-20" x="1306.550781"/>
     <use xlink:href="#DejaVuSans-6f" x="1338.337891"/>
     <use xlink:href="#DejaVuSans-66" x="1399.519531"/>
     <use xlink:href="#DejaVuSans-20" x="1434.724609"/>
     <use xlink:href="#DejaVuSans-46" x="1466.511719"/>
     <use xlink:href="#DejaVuSans-6f" x="1520.40625"/>
     <use xlink:href="#DejaVuSans-72" x="1581.587891"/>
     <use xlink:href="#DejaVuSans-6d" x="1620.951172"/>
     <use xlink:href="#DejaVuSans-61" x="1718.363281"/>
     <use xlink:href="#DejaVuSans-74" x="1779.642578"/>
     <use xlink:href="#DejaVuSans-69" x="1818.851562"/>
     <use xlink:href="#DejaVuSans-6f" x="1846.634766"/>
     <use xlink:href="#DejaVuSans-6e" x="1907.816406"/>
    </g>
    <!-- vs Interatomic Distance for $HF$ -->
    <g transform="translate(279.762969 63.58875) scale(0.3 -0.3)">
     <defs>
      <path id="DejaVuSans-76" d="M 191 3500 
L 800 3500 
L 1894 563 
L 2988 3500 
L 3597 3500 
L 2284 0 
L 1503 0 
L 191 3500 
z
" transform="scale(0.015625)"/>
      <path id="DejaVuSans-Oblique-46" d="M 1081 4666 
L 3756 4666 
L 3653 4134 
L 1606 4134 
L 1338 2759 
L 3188 2759 
L 3084 2228 
L 1234 2228 
L 800 0 
L 172 0 
L 1081 4666 
z
" transform="scale(0.015625)"/>
     </defs>
     <use xlink:href="#DejaVuSans-76" transform="translate(0 0.015625)"/>
     <use xlink:href="#DejaVuSans-73" transform="translate(59.179688 0.015625)"/>
     <use xlink:href="#DejaVuSans-20" transform="translate(111.279297 0.015625)"/>
     <use xlink:href="#DejaVuSans-49" transform="translate(143.066406 0.015625)"/>
     <use xlink:href="#DejaVuSans-6e" transform="translate(172.558594 0.015625)"/>
     <use xlink:href="#DejaVuSans-74" transform="translate(235.9375 0.015625)"/>
     <use xlink:href="#DejaVuSans-65" transform="translate(275.146484 0.015625)"/>
     <use xlink:href="#DejaVuSans-72" transform="translate(336.669922 0.015625)"/>
     <use xlink:href="#DejaVuSans-61" transform="translate(377.783203 0.015625)"/>
     <use xlink:href="#DejaVuSans-74" transform="translate(439.0625 0.015625)"/>
     <use xlink:href="#DejaVuSans-6f" transform="translate(478.271484 0.015625)"/>
     <use xlink:href="#DejaVuSans-6d" transform="translate(539.453125 0.015625)"/>
     <use xlink:href="#DejaVuSans-69" transform="translate(636.865234 0.015625)"/>
     <use xlink:href="#DejaVuSans-63" transform="translate(664.648438 0.015625)"/>
     <use xlink:href="#DejaVuSans-20" transform="translate(719.628906 0.015625)"/>
     <use xlink:href="#DejaVuSans-44" transform="translate(751.416016 0.015625)"/>
     <use xlink:href="#DejaVuSans-69" transform="translate(828.417969 0.015625)"/>
     <use xlink:href="#DejaVuSans-73" transform="translate(856.201172 0.015625)"/>
     <use xlink:href="#DejaVuSans-74" transform="translate(908.300781 0.015625)"/>
     <use xlink:href="#DejaVuSans-61" transform="translate(947.509766 0.015625)"/>
     <use xlink:href="#DejaVuSans-6e" transform="translate(1008.789062 0.015625)"/>
     <use xlink:href="#DejaVuSans-63" transform="translate(1072.167969 0.015625)"/>
     <use xlink:href="#DejaVuSans-65" transform="translate(1127.148438 0.015625)"/>
     <use xlink:href="#DejaVuSans-20" transform="translate(1188.671875 0.015625)"/>
     <use xlink:href="#DejaVuSans-66" transform="translate(1220.458984 0.015625)"/>
     <use xlink:href="#DejaVuSans-6f" transform="translate(1255.664062 0.015625)"/>
     <use xlink:href="#DejaVuSans-72" transform="translate(1316.845703 0.015625)"/>
     <use xlink:href="#DejaVuSans-20" transform="translate(1357.958984 0.015625)"/>
     <use xlink:href="#DejaVuSans-Oblique-48" transform="translate(1389.746094 0.015625)"/>
     <use xlink:href="#DejaVuSans-Oblique-46" transform="translate(1464.941406 0.015625)"/>
    </g>
   </g>
  </g>
  <g id="axes_2">
   <g id="matplotlib.axis_3">
    <g id="ytick_9">
     <g id="line2d_34">
      <defs>
       <path id="m614ce21cf9" d="M 0 0 
L 3.5 0 
" style="stroke: #000000; stroke-width: 0.8"/>
      </defs>
      <g>
       <use xlink:href="#m614ce21cf9" x="843.012969" y="739.01177" style="stroke: #000000; stroke-width: 0.8"/>
      </g>
     </g>
     <g id="text_20">
      <!-- 0.0 -->
      <g transform="translate(850.012969 748.509817) scale(0.25 -0.25)">
       <use xlink:href="#DejaVuSans-30"/>
       <use xlink:href="#DejaVuSans-2e" x="63.623047"/>
       <use xlink:href="#DejaVuSans-30" x="95.410156"/>
      </g>
     </g>
    </g>
    <g id="ytick_10">
     <g id="line2d_35">
      <g>
       <use xlink:href="#m614ce21cf9" x="843.012969" y="655.869559" style="stroke: #000000; stroke-width: 0.8"/>
      </g>
     </g>
     <g id="text_21">
      <!-- 0.1 -->
      <g transform="translate(850.012969 665.367606) scale(0.25 -0.25)">
       <use xlink:href="#DejaVuSans-30"/>
       <use xlink:href="#DejaVuSans-2e" x="63.623047"/>
       <use xlink:href="#DejaVuSans-31" x="95.410156"/>
      </g>
     </g>
    </g>
    <g id="ytick_11">
     <g id="line2d_36">
      <g>
       <use xlink:href="#m614ce21cf9" x="843.012969" y="572.727348" style="stroke: #000000; stroke-width: 0.8"/>
      </g>
     </g>
     <g id="text_22">
      <!-- 0.2 -->
      <g transform="translate(850.012969 582.225395) scale(0.25 -0.25)">
       <use xlink:href="#DejaVuSans-30"/>
       <use xlink:href="#DejaVuSans-2e" x="63.623047"/>
       <use xlink:href="#DejaVuSans-32" x="95.410156"/>
      </g>
     </g>
    </g>
    <g id="ytick_12">
     <g id="line2d_37">
      <g>
       <use xlink:href="#m614ce21cf9" x="843.012969" y="489.585137" style="stroke: #000000; stroke-width: 0.8"/>
      </g>
     </g>
     <g id="text_23">
      <!-- 0.3 -->
      <g transform="translate(850.012969 499.083184) scale(0.25 -0.25)">
       <use xlink:href="#DejaVuSans-30"/>
       <use xlink:href="#DejaVuSans-2e" x="63.623047"/>
       <use xlink:href="#DejaVuSans-33" x="95.410156"/>
      </g>
     </g>
    </g>
    <g id="ytick_13">
     <g id="line2d_38">
      <g>
       <use xlink:href="#m614ce21cf9" x="843.012969" y="406.442926" style="stroke: #000000; stroke-width: 0.8"/>
      </g>
     </g>
     <g id="text_24">
      <!-- 0.4 -->
      <g transform="translate(850.012969 415.940973) scale(0.25 -0.25)">
       <use xlink:href="#DejaVuSans-30"/>
       <use xlink:href="#DejaVuSans-2e" x="63.623047"/>
       <use xlink:href="#DejaVuSans-34" x="95.410156"/>
      </g>
     </g>
    </g>
    <g id="ytick_14">
     <g id="line2d_39">
      <g>
       <use xlink:href="#m614ce21cf9" x="843.012969" y="323.300715" style="stroke: #000000; stroke-width: 0.8"/>
      </g>
     </g>
     <g id="text_25">
      <!-- 0.5 -->
      <g transform="translate(850.012969 332.798762) scale(0.25 -0.25)">
       <use xlink:href="#DejaVuSans-30"/>
       <use xlink:href="#DejaVuSans-2e" x="63.623047"/>
       <use xlink:href="#DejaVuSans-35" x="95.410156"/>
      </g>
     </g>
    </g>
    <g id="ytick_15">
     <g id="line2d_40">
      <g>
       <use xlink:href="#m614ce21cf9" x="843.012969" y="240.158504" style="stroke: #000000; stroke-width: 0.8"/>
      </g>
     </g>
     <g id="text_26">
      <!-- 0.6 -->
      <g transform="translate(850.012969 249.656551) scale(0.25 -0.25)">
       <use xlink:href="#DejaVuSans-30"/>
       <use xlink:href="#DejaVuSans-2e" x="63.623047"/>
       <use xlink:href="#DejaVuSans-36" x="95.410156"/>
      </g>
     </g>
    </g>
    <g id="ytick_16">
     <g id="line2d_41">
      <g>
       <use xlink:href="#m614ce21cf9" x="843.012969" y="157.016293" style="stroke: #000000; stroke-width: 0.8"/>
      </g>
     </g>
     <g id="text_27">
      <!-- 0.7 -->
      <g transform="translate(850.012969 166.51434) scale(0.25 -0.25)">
       <use xlink:href="#DejaVuSans-30"/>
       <use xlink:href="#DejaVuSans-2e" x="63.623047"/>
       <use xlink:href="#DejaVuSans-37" x="95.410156"/>
      </g>
     </g>
    </g>
    <g id="text_28">
     <!-- EoF ($A.U.$) -->
     <g transform="translate(916.566094 516.62875) rotate(-90) scale(0.3 -0.3)">
      <defs>
       <path id="DejaVuSans-Oblique-41" d="M 2356 4666 
L 3072 4666 
L 3938 0 
L 3278 0 
L 3084 1197 
L 984 1197 
L 325 0 
L -341 0 
L 2356 4666 
z
M 2584 4044 
L 1275 1722 
L 2988 1722 
L 2584 4044 
z
" transform="scale(0.015625)"/>
       <path id="DejaVuSans-Oblique-55" d="M 991 4666 
L 1625 4666 
L 1075 1831 
Q 1041 1641 1027 1517 
Q 1013 1394 1013 1300 
Q 1013 869 1253 645 
Q 1494 422 1959 422 
Q 2563 422 2898 753 
Q 3234 1084 3378 1831 
L 3928 4666 
L 4563 4666 
L 4000 1753 
Q 3816 809 3300 359 
Q 2784 -91 1888 -91 
Q 1188 -91 780 261 
Q 372 613 372 1216 
Q 372 1325 387 1461 
Q 403 1597 434 1753 
L 991 4666 
z
" transform="scale(0.015625)"/>
      </defs>
      <use xlink:href="#DejaVuSans-45" transform="translate(0 0.125)"/>
      <use xlink:href="#DejaVuSans-6f" transform="translate(63.183594 0.125)"/>
      <use xlink:href="#DejaVuSans-46" transform="translate(124.365234 0.125)"/>
      <use xlink:href="#DejaVuSans-20" transform="translate(181.884766 0.125)"/>
      <use xlink:href="#DejaVuSans-28" transform="translate(213.671875 0.125)"/>
      <use xlink:href="#DejaVuSans-Oblique-41" transform="translate(252.685547 0.125)"/>
      <use xlink:href="#DejaVuSans-2e" transform="translate(321.09375 0.125)"/>
      <use xlink:href="#DejaVuSans-Oblique-55" transform="translate(372.363281 0.125)"/>
      <use xlink:href="#DejaVuSans-2e" transform="translate(445.556641 0.125)"/>
      <use xlink:href="#DejaVuSans-29" transform="translate(496.826172 0.125)"/>
     </g>
    </g>
   </g>
   <g id="line2d_42">
    <path d="M 203.849332 738.625292 
L 224.839928 738.62875 
L 245.830524 738.628205 
L 266.821119 738.621264 
L 287.811715 738.605375 
L 308.80231 738.577676 
L 329.792906 738.534859 
L 350.783502 738.473168 
L 371.774097 738.388599 
L 392.764693 738.277357 
L 413.755288 738.136555 
L 434.745884 737.965007 
L 455.73648 737.763804 
L 476.727075 737.536454 
L 497.717671 737.28845 
L 518.708267 737.026415 
L 539.698862 736.757153 
L 560.689458 736.486879 
L 581.680053 552.163874 
L 602.670649 514.802459 
L 623.661245 475.501356 
L 644.65184 434.947937 
L 665.642436 393.781045 
L 686.633031 352.566985 
L 707.623627 311.84971 
L 728.614223 272.204833 
L 749.604818 234.198486 
L 770.595414 198.281019 
L 791.58601 164.75181 
L 812.576605 133.82875 
" clip-path="url(#p798c59fb8d)" style="fill: none; stroke-dasharray: 5.55,2.4; stroke-dashoffset: 0; stroke: #ff7f0e; stroke-width: 1.5"/>
    <defs>
     <path id="m233881298b" d="M -6 0 
L 6 0 
M 0 6 
L 0 -6 
" style="stroke: #ff7f0e"/>
    </defs>
    <g clip-path="url(#p798c59fb8d)">
     <use xlink:href="#m233881298b" x="203.849332" y="738.625292" style="fill: #ff7f0e; stroke: #ff7f0e"/>
     <use xlink:href="#m233881298b" x="224.839928" y="738.62875" style="fill: #ff7f0e; stroke: #ff7f0e"/>
     <use xlink:href="#m233881298b" x="245.830524" y="738.628205" style="fill: #ff7f0e; stroke: #ff7f0e"/>
     <use xlink:href="#m233881298b" x="266.821119" y="738.621264" style="fill: #ff7f0e; stroke: #ff7f0e"/>
     <use xlink:href="#m233881298b" x="287.811715" y="738.605375" style="fill: #ff7f0e; stroke: #ff7f0e"/>
     <use xlink:href="#m233881298b" x="308.80231" y="738.577676" style="fill: #ff7f0e; stroke: #ff7f0e"/>
     <use xlink:href="#m233881298b" x="329.792906" y="738.534859" style="fill: #ff7f0e; stroke: #ff7f0e"/>
     <use xlink:href="#m233881298b" x="350.783502" y="738.473168" style="fill: #ff7f0e; stroke: #ff7f0e"/>
     <use xlink:href="#m233881298b" x="371.774097" y="738.388599" style="fill: #ff7f0e; stroke: #ff7f0e"/>
     <use xlink:href="#m233881298b" x="392.764693" y="738.277357" style="fill: #ff7f0e; stroke: #ff7f0e"/>
     <use xlink:href="#m233881298b" x="413.755288" y="738.136555" style="fill: #ff7f0e; stroke: #ff7f0e"/>
     <use xlink:href="#m233881298b" x="434.745884" y="737.965007" style="fill: #ff7f0e; stroke: #ff7f0e"/>
     <use xlink:href="#m233881298b" x="455.73648" y="737.763804" style="fill: #ff7f0e; stroke: #ff7f0e"/>
     <use xlink:href="#m233881298b" x="476.727075" y="737.536454" style="fill: #ff7f0e; stroke: #ff7f0e"/>
     <use xlink:href="#m233881298b" x="497.717671" y="737.28845" style="fill: #ff7f0e; stroke: #ff7f0e"/>
     <use xlink:href="#m233881298b" x="518.708267" y="737.026415" style="fill: #ff7f0e; stroke: #ff7f0e"/>
     <use xlink:href="#m233881298b" x="539.698862" y="736.757153" style="fill: #ff7f0e; stroke: #ff7f0e"/>
     <use xlink:href="#m233881298b" x="560.689458" y="736.486879" style="fill: #ff7f0e; stroke: #ff7f0e"/>
     <use xlink:href="#m233881298b" x="581.680053" y="552.163874" style="fill: #ff7f0e; stroke: #ff7f0e"/>
     <use xlink:href="#m233881298b" x="602.670649" y="514.802459" style="fill: #ff7f0e; stroke: #ff7f0e"/>
     <use xlink:href="#m233881298b" x="623.661245" y="475.501356" style="fill: #ff7f0e; stroke: #ff7f0e"/>
     <use xlink:href="#m233881298b" x="644.65184" y="434.947937" style="fill: #ff7f0e; stroke: #ff7f0e"/>
     <use xlink:href="#m233881298b" x="665.642436" y="393.781045" style="fill: #ff7f0e; stroke: #ff7f0e"/>
     <use xlink:href="#m233881298b" x="686.633031" y="352.566985" style="fill: #ff7f0e; stroke: #ff7f0e"/>
     <use xlink:href="#m233881298b" x="707.623627" y="311.84971" style="fill: #ff7f0e; stroke: #ff7f0e"/>
     <use xlink:href="#m233881298b" x="728.614223" y="272.204833" style="fill: #ff7f0e; stroke: #ff7f0e"/>
     <use xlink:href="#m233881298b" x="749.604818" y="234.198486" style="fill: #ff7f0e; stroke: #ff7f0e"/>
     <use xlink:href="#m233881298b" x="770.595414" y="198.281019" style="fill: #ff7f0e; stroke: #ff7f0e"/>
     <use xlink:href="#m233881298b" x="791.58601" y="164.75181" style="fill: #ff7f0e; stroke: #ff7f0e"/>
     <use xlink:href="#m233881298b" x="812.576605" y="133.82875" style="fill: #ff7f0e; stroke: #ff7f0e"/>
    </g>
   </g>
   <g id="patch_7">
    <path d="M 173.412969 768.86875 
L 173.412969 103.58875 
" style="fill: none; stroke: #000000; stroke-width: 0.8; stroke-linejoin: miter; stroke-linecap: square"/>
   </g>
   <g id="patch_8">
    <path d="M 843.012969 768.86875 
L 843.012969 103.58875 
" style="fill: none; stroke: #000000; stroke-width: 0.8; stroke-linejoin: miter; stroke-linecap: square"/>
   </g>
   <g id="patch_9">
    <path d="M 173.412969 768.86875 
L 843.012969 768.86875 
" style="fill: none; stroke: #000000; stroke-width: 0.8; stroke-linejoin: miter; stroke-linecap: square"/>
   </g>
   <g id="patch_10">
    <path d="M 173.412969 103.58875 
L 843.012969 103.58875 
" style="fill: none; stroke: #000000; stroke-width: 0.8; stroke-linejoin: miter; stroke-linecap: square"/>
   </g>
  </g>
  <g id="legend_1">
   <g id="patch_11">
    <path d="M 781.980156 867.570625 
L 916.005156 867.570625 
Q 920.005156 867.570625 920.005156 863.570625 
L 920.005156 806.858125 
Q 920.005156 802.858125 916.005156 802.858125 
L 781.980156 802.858125 
Q 777.980156 802.858125 777.980156 806.858125 
L 777.980156 863.570625 
Q 777.980156 867.570625 781.980156 867.570625 
z
" style="fill: #ffffff; opacity: 0.8; stroke: #cccccc; stroke-linejoin: miter"/>
   </g>
   <g id="line2d_43">
    <path d="M 785.980156 819.055 
L 805.980156 819.055 
L 825.980156 819.055 
" style="fill: none; stroke-dasharray: 5.55,2.4; stroke-dashoffset: 0; stroke: #1f77b4; stroke-width: 1.5"/>
    <g>
     <use xlink:href="#ma8aa6d9b46" x="805.980156" y="819.055" style="fill: #1f77b4; stroke: #1f77b4"/>
    </g>
   </g>
   <g id="text_29">
    <!-- Energy -->
    <g transform="translate(841.980156 826.055) scale(0.2 -0.2)">
     <use xlink:href="#DejaVuSans-45"/>
     <use xlink:href="#DejaVuSans-6e" x="63.183594"/>
     <use xlink:href="#DejaVuSans-65" x="126.5625"/>
     <use xlink:href="#DejaVuSans-72" x="188.085938"/>
     <use xlink:href="#DejaVuSans-67" x="227.449219"/>
     <use xlink:href="#DejaVuSans-79" x="290.925781"/>
    </g>
   </g>
   <g id="line2d_44">
    <path d="M 785.980156 848.41125 
L 805.980156 848.41125 
L 825.980156 848.41125 
" style="fill: none; stroke-dasharray: 5.55,2.4; stroke-dashoffset: 0; stroke: #ff7f0e; stroke-width: 1.5"/>
    <g>
     <use xlink:href="#m233881298b" x="805.980156" y="848.41125" style="fill: #ff7f0e; stroke: #ff7f0e"/>
    </g>
   </g>
   <g id="text_30">
    <!-- EoF -->
    <g transform="translate(841.980156 855.41125) scale(0.2 -0.2)">
     <use xlink:href="#DejaVuSans-45"/>
     <use xlink:href="#DejaVuSans-6f" x="63.183594"/>
     <use xlink:href="#DejaVuSans-46" x="124.365234"/>
    </g>
   </g>
  </g>
 </g>
 <defs>
  <clipPath id="p798c59fb8d">
   <rect x="173.412969" y="103.58875" width="669.6" height="665.28"/>
  </clipPath>
 </defs>
</svg>
